<svg width="200" height="301" viewBox="0 0 200 301" fill="none" xmlns="http://www.w3.org/2000/svg">
<rect y="0.679871" width="200" height="300" rx="14.812" fill="white"/>
<path d="M18.6953 51.1392V25.8876H30.0699C32.2398 25.8876 34.0656 26.22 35.5472 26.885C37.0405 27.55 38.1721 28.5241 38.9421 29.8074C39.7121 31.0907 40.097 32.6657 40.097 34.5323V34.5673C40.097 36.1422 39.7237 37.583 38.9771 38.8896C38.2421 40.1963 37.2621 41.1471 36.0372 41.742L40.832 51.1392H32.5373L28.5474 42.8445C28.5008 42.8445 28.4483 42.8445 28.3899 42.8445C28.3316 42.8445 28.2733 42.8445 28.2149 42.8445H26.115V51.1392H18.6953ZM26.115 37.6122H29.2124C30.2157 37.6122 31.0207 37.3263 31.6273 36.7547C32.234 36.1831 32.5373 35.4364 32.5373 34.5148V34.4798C32.5373 33.5581 32.2281 32.8115 31.6098 32.2398C30.9915 31.6565 30.1924 31.3649 29.2124 31.3649H26.115V37.6122ZM47.8668 51.3842C46.5718 51.3842 45.4285 51.1276 44.4369 50.6142C43.4569 50.1009 42.687 49.4068 42.127 48.5318C41.5787 47.6452 41.3045 46.6477 41.3045 45.5394V45.5219C41.3045 43.6553 41.9986 42.2145 43.3869 41.1996C44.7752 40.1729 46.7527 39.5721 49.3192 39.3971L57.2115 38.8721V42.862L50.5092 43.3345C49.7509 43.3811 49.1909 43.5503 48.8293 43.842C48.4793 44.1336 48.3043 44.5186 48.3043 44.9969V45.0144C48.3043 45.5161 48.5026 45.9011 48.8993 46.1694C49.2959 46.4377 49.8267 46.5719 50.4917 46.5719C51.0633 46.5719 51.565 46.4785 51.9966 46.2919C52.4283 46.0936 52.7666 45.8252 53.0116 45.4869C53.2566 45.1486 53.3791 44.7694 53.3791 44.3494V38.3471C53.3791 37.7872 53.1983 37.3438 52.8366 37.0172C52.475 36.6905 51.9267 36.5272 51.1917 36.5272C50.4567 36.5272 49.8851 36.6672 49.4767 36.9472C49.0684 37.2272 48.8234 37.5655 48.7418 37.9622L48.7068 38.1372H42.302L42.3195 37.9097C42.4245 36.5914 42.8503 35.4481 43.5969 34.4798C44.3552 33.4998 45.4052 32.7415 46.7468 32.2048C48.1001 31.6682 49.7159 31.3999 51.5942 31.3999C53.3908 31.3999 54.9599 31.6799 56.3015 32.2398C57.6431 32.7882 58.6873 33.5581 59.4339 34.5498C60.1805 35.5414 60.5539 36.6905 60.5539 37.9972V51.1392H53.3791V48.5143H53.2391C52.8775 49.121 52.4341 49.6401 51.9092 50.0718C51.3958 50.5034 50.8009 50.8301 50.1242 51.0517C49.4476 51.2734 48.6951 51.3842 47.8668 51.3842ZM63.2663 51.1392V31.8199H70.441V51.1392H63.2663ZM66.8537 30.0874C65.8504 30.0874 65.0046 29.7491 64.3162 29.0725C63.6396 28.3958 63.3013 27.5967 63.3013 26.675C63.3013 25.7417 63.6396 24.9426 64.3162 24.2776C65.0046 23.601 65.8504 23.2626 66.8537 23.2626C67.857 23.2626 68.6969 23.601 69.3736 24.2776C70.0619 24.9426 70.406 25.7417 70.406 26.675C70.406 27.5967 70.0619 28.3958 69.3736 29.0725C68.6969 29.7491 67.857 30.0874 66.8537 30.0874ZM73.1359 51.1392V31.8199H80.3107V35.4072H80.4507C80.929 34.1006 81.6582 33.109 82.6381 32.4323C83.6181 31.744 84.8372 31.3999 86.2955 31.3999C88.4188 31.3999 90.0521 32.0415 91.1953 33.3248C92.3503 34.6081 92.9278 36.4105 92.9278 38.7321V51.1392H85.753V40.3071C85.753 39.3388 85.5255 38.5746 85.0705 38.0147C84.6156 37.4547 83.9389 37.1747 83.0406 37.1747C82.4806 37.1747 81.9965 37.3088 81.5882 37.5772C81.1798 37.8455 80.8649 38.213 80.6432 38.6796C80.4215 39.1463 80.3107 39.6829 80.3107 40.2896V51.1392H73.1359Z" fill="#527DA5"/>
<path d="M107.503 276.677V251.425H118.877C121.047 251.425 122.873 251.758 124.355 252.423C125.848 253.088 126.979 254.062 127.749 255.345C128.519 256.629 128.904 258.203 128.904 260.07V260.105C128.904 261.68 128.531 263.121 127.784 264.427C127.049 265.734 126.07 266.685 124.845 267.28L129.639 276.677H121.345L117.355 268.382C117.308 268.382 117.256 268.382 117.197 268.382C117.139 268.382 117.081 268.382 117.022 268.382H114.922V276.677H107.503ZM114.922 263.15H118.02C119.023 263.15 119.828 262.864 120.435 262.292C121.041 261.721 121.345 260.974 121.345 260.053V260.018C121.345 259.096 121.036 258.349 120.417 257.778C119.799 257.194 119 256.903 118.02 256.903H114.922V263.15ZM136.674 276.922C135.379 276.922 134.236 276.665 133.244 276.152C132.264 275.639 131.494 274.945 130.934 274.07C130.386 273.183 130.112 272.185 130.112 271.077V271.06C130.112 269.193 130.806 267.752 132.194 266.737C133.583 265.711 135.56 265.11 138.127 264.935L146.019 264.41V268.4L139.317 268.872C138.558 268.919 137.998 269.088 137.637 269.38C137.287 269.671 137.112 270.056 137.112 270.535V270.552C137.112 271.054 137.31 271.439 137.707 271.707C138.103 271.975 138.634 272.11 139.299 272.11C139.871 272.11 140.372 272.016 140.804 271.83C141.236 271.631 141.574 271.363 141.819 271.025C142.064 270.686 142.186 270.307 142.186 269.887V263.885C142.186 263.325 142.006 262.882 141.644 262.555C141.282 262.228 140.734 262.065 139.999 262.065C139.264 262.065 138.692 262.205 138.284 262.485C137.876 262.765 137.631 263.103 137.549 263.5L137.514 263.675H131.109L131.127 263.447C131.232 262.129 131.658 260.986 132.404 260.018C133.163 259.038 134.213 258.279 135.554 257.743C136.907 257.206 138.523 256.938 140.402 256.938C142.198 256.938 143.767 257.218 145.109 257.778C146.45 258.326 147.495 259.096 148.241 260.088C148.988 261.079 149.361 262.228 149.361 263.535V276.677H142.186V274.052H142.046C141.685 274.659 141.242 275.178 140.717 275.61C140.203 276.041 139.608 276.368 138.932 276.59C138.255 276.811 137.502 276.922 136.674 276.922ZM152.074 276.677V257.358H159.248V276.677H152.074ZM155.661 255.625C154.658 255.625 153.812 255.287 153.124 254.61C152.447 253.934 152.109 253.134 152.109 252.213C152.109 251.28 152.447 250.48 153.124 249.815C153.812 249.139 154.658 248.8 155.661 248.8C156.664 248.8 157.504 249.139 158.181 249.815C158.869 250.48 159.213 251.28 159.213 252.213C159.213 253.134 158.869 253.934 158.181 254.61C157.504 255.287 156.664 255.625 155.661 255.625ZM161.943 276.677V257.358H169.118V260.945H169.258C169.736 259.638 170.466 258.647 171.446 257.97C172.425 257.282 173.645 256.938 175.103 256.938C177.226 256.938 178.859 257.579 180.003 258.863C181.158 260.146 181.735 261.948 181.735 264.27V276.677H174.56V265.845C174.56 264.877 174.333 264.112 173.878 263.552C173.423 262.992 172.746 262.712 171.848 262.712C171.288 262.712 170.804 262.847 170.396 263.115C169.987 263.383 169.672 263.751 169.451 264.217C169.229 264.684 169.118 265.221 169.118 265.827V276.677H161.943Z" fill="#527DA5"/>
<g clip-path="url(#clip0_56_39)">
<path d="M170.055 140.062C168.12 135.872 164.58 133.183 160.561 132.016C160.51 132.001 160.459 131.983 160.41 131.97C160.466 131.906 160.518 131.834 160.574 131.77C160.585 131.526 160.585 131.393 160.585 131.393L160.854 131.428C161.975 130.069 162.948 128.588 163.699 126.966C166.504 120.896 166.483 113.655 162.109 108.326C158.391 103.794 152.066 101.426 146.449 103.682C145.775 103.954 145.133 104.282 144.522 104.657C141.587 95.1373 133.471 87.1704 123.313 85.5796C113.594 84.0555 103.91 88.3251 97.5805 95.5351C97.5703 95.5453 97.56 95.553 97.5497 95.5633C97.0776 96.0123 96.6414 96.4793 96.2283 96.9617C92.4771 91.3117 85.7854 87.6656 78.5806 89.0692C69.5386 90.8319 64.1606 100.128 65.1176 108.749C63.8116 107.856 62.4133 107.099 60.9276 106.519C55.2135 104.29 48.6347 105.506 44.3652 110.022C40.5703 114.035 38.823 119.931 39.3721 125.378C39.739 129.019 40.9219 132.386 42.5152 135.577C42.369 135.583 42.2227 135.598 42.0765 135.606C41.9046 135.616 41.7352 135.626 41.5633 135.639L36.3726 136.74C32.6471 138.141 29.7425 140.925 28.8753 145.833C27.949 151.072 30.2993 156.658 34.3097 160.071C38.2739 163.442 43.2157 164.759 48.2268 165.539C48.4166 167.773 49.1505 169.972 50.459 172.015C53.1275 176.184 57.3765 178.594 61.9052 180.287C70.9703 183.674 80.8077 185.829 90.3423 187.371C109.83 190.527 130.621 190.076 148.412 180.587C155.72 176.69 162.281 168.979 161.418 160.8C169.011 157.5 173.737 148.042 170.058 140.068L170.055 140.062ZM150.357 159.299C150.388 159.288 150.421 159.278 150.452 159.268C150.478 159.319 150.503 159.368 150.532 159.419C150.475 159.378 150.416 159.34 150.357 159.301V159.299ZM158.534 142.539C158.758 142.497 158.732 142.654 158.534 142.539Z" fill="#719CBC"/>
<path d="M150.452 159.265C150.421 159.275 150.388 159.286 150.357 159.296C150.416 159.334 150.475 159.373 150.532 159.414C150.503 159.365 150.478 159.314 150.452 159.263V159.265Z" fill="#8AA7B5"/>
<path d="M158.534 142.538C158.759 142.497 158.733 142.655 158.534 142.538Z" fill="#8AA7B5"/>
<path d="M160.572 131.767C160.667 131.654 160.759 131.539 160.851 131.426L160.582 131.39C160.582 131.39 160.582 131.526 160.572 131.767Z" fill="#8AA7B5"/>
<path d="M135.965 193.345L138.631 192.439C140.671 191.746 142.778 193.291 142.734 195.443L142.585 202.812C142.562 203.929 143.673 204.714 144.717 204.321L146.88 203.505C149.4 202.556 152.027 204.616 151.709 207.287L148.735 232.158C148.641 232.943 147.527 233.012 147.337 232.243L143.624 217.135C143.409 216.257 142.503 215.742 141.638 216.001C138.4 216.978 135.07 214.777 134.7 211.416L134.085 205.827C133.974 204.827 132.966 204.183 132.011 204.506L131.231 204.77C127.87 205.912 124.273 203.821 123.601 200.334L120.506 184.31C120.337 183.433 120.93 182.589 121.815 182.453L132.296 180.834C133.266 180.685 134.136 181.449 134.113 182.429L133.884 191.802C133.859 192.898 134.929 193.686 135.968 193.334L135.965 193.345Z" fill="#FBB903"/>
<path d="M150.175 220.106L151.707 207.287C152.027 204.614 149.397 202.556 146.878 203.505L144.715 204.321C143.67 204.714 142.559 203.929 142.583 202.812L142.731 195.443C142.775 193.291 140.668 191.749 138.629 192.439L135.963 193.344C134.926 193.696 133.854 192.908 133.879 191.813L134.108 182.437C134.131 181.454 133.261 180.69 132.291 180.841L125.656 181.865L128.509 196.639C129.181 200.126 132.779 202.215 136.14 201.075L136.92 200.811C137.874 200.488 138.883 201.129 138.993 202.132L139.609 207.721C139.981 211.082 143.311 213.284 146.547 212.306C147.411 212.044 148.317 212.563 148.533 213.44L150.172 220.109L150.175 220.106Z" fill="#F9EC6C"/>
<path d="M89.2081 236.769C89.2081 236.769 89.2081 236.769 89.2081 236.766H89.2139C89.2139 236.766 89.2139 236.766 89.211 236.769H89.2081Z" fill="#8AA7B5"/>
<path d="M87.1607 205.399C87.1556 205.378 87.1479 205.36 87.1402 205.342C87.171 204.837 86.3473 204.67 86.1652 205.222C85.3826 207.616 83.4531 209.62 83.0913 212.134C82.8424 213.866 83.5608 215.893 85.5134 216.188C87.4224 216.475 88.2871 214.667 88.5283 213.076C88.9157 210.515 87.8022 207.841 87.1607 205.401V205.399ZM86.2627 213.907C86.2627 213.907 86.2704 213.907 86.2755 213.907C86.2755 213.907 86.2729 213.912 86.2704 213.915C86.2704 213.915 86.2678 213.915 86.2652 213.92C86.2652 213.917 86.2652 213.912 86.2652 213.91L86.2627 213.907ZM86.8425 208.077C86.8451 208.059 86.8502 208.042 86.8528 208.024C86.8579 208.044 86.8631 208.065 86.8708 208.088C86.8605 208.088 86.8528 208.08 86.8451 208.077H86.8425Z" fill="#95C1EB"/>
<path d="M100.947 193.255C100.68 192.818 100.077 193.065 100.031 193.462C99.9872 193.516 99.9538 193.583 99.9358 193.67C99.1507 197.719 95.3558 200.406 94.7914 204.526C94.4527 207.005 95.8305 210.069 98.6504 210.22C101.876 210.394 103.405 207.023 103.656 204.326C104.016 200.444 102.964 196.557 100.944 193.252L100.947 193.255ZM102.571 204.167C102.615 204.034 102.653 203.9 102.686 203.764C102.671 203.921 102.65 204.08 102.625 204.244C102.607 204.218 102.591 204.193 102.571 204.17V204.167ZM97.4136 208.811C97.6086 208.906 97.8036 208.981 97.9935 209.04C98.0628 209.088 98.1346 209.135 98.209 209.176C98.0371 209.119 97.8601 209.05 97.6779 208.958C97.5855 208.911 97.4983 208.863 97.4136 208.814V208.811Z" fill="#6093B1"/>
<path d="M93.5393 220.645C93.3469 220.332 92.9158 220.509 92.885 220.794C92.8542 220.832 92.8286 220.881 92.8183 220.943C92.2564 223.839 89.5392 225.764 89.1363 228.714C88.8952 230.49 89.8804 232.681 91.8997 232.789C94.209 232.915 95.3046 230.5 95.4842 228.571C95.7408 225.792 94.989 223.008 93.5419 220.642L93.5393 220.645ZM94.7016 228.458C94.7324 228.363 94.7606 228.265 94.7837 228.168C94.7735 228.278 94.7581 228.394 94.7401 228.512C94.7273 228.494 94.7145 228.476 94.7016 228.458ZM91.0094 231.783C91.1505 231.85 91.2891 231.906 91.4251 231.947C91.4738 231.983 91.5251 232.014 91.579 232.045C91.4559 232.004 91.3301 231.955 91.1993 231.888C91.1326 231.855 91.071 231.822 91.0094 231.786V231.783Z" fill="#6093B1"/>
<path d="M118.674 210.651C117.922 208.873 117.276 207.205 116.96 205.286C116.945 205.196 116.911 205.127 116.868 205.073C116.919 204.637 116.383 204.224 116.06 204.642C114.351 206.861 112.991 209.368 112.619 212.18C112.339 214.295 112.66 217.504 115.31 217.91C117.568 218.256 119.033 215.739 119.236 213.82C119.357 212.691 119.108 211.683 118.672 210.649L118.674 210.651ZM116.06 210.774C116.06 210.774 116.06 210.782 116.06 210.785C116.06 210.785 116.06 210.785 116.057 210.785C116.057 210.782 116.057 210.779 116.057 210.774H116.06ZM116.591 216.629C116.578 216.635 116.562 216.64 116.55 216.645C117.019 216.401 117.414 216.016 117.75 215.577C117.763 215.567 117.779 215.56 117.791 215.549C117.53 216.006 117.142 216.386 116.591 216.629Z" fill="#95C1EB"/>
<path d="M105.309 214.146C105.252 213.961 105.096 213.817 104.914 213.74C104.713 213.625 104.47 213.62 104.262 213.81C104.244 213.825 104.226 213.843 104.208 213.863C104.203 213.869 104.198 213.874 104.193 213.879C102.412 216.021 98.8814 223.86 103.854 224.619C109.54 225.487 106.004 216.404 105.309 214.146ZM104.606 221.176C104.606 221.176 104.611 221.197 104.613 221.207C104.611 221.202 104.606 221.199 104.603 221.197C104.603 221.189 104.603 221.184 104.603 221.176H104.606Z" fill="#95C1EB"/>
<path opacity="0.47" d="M77.0693 215.58C77.0128 215.395 76.8563 215.251 76.6741 215.175C76.474 215.059 76.2302 215.054 76.0224 215.241C76.0044 215.257 75.9865 215.275 75.9685 215.295C75.9634 215.3 75.9583 215.305 75.9531 215.31C74.1724 217.453 70.6419 225.294 75.6144 226.051C81.3003 226.918 77.7646 217.835 77.0693 215.577V215.58ZM76.3662 222.61C76.3662 222.61 76.3714 222.631 76.3739 222.641C76.3714 222.636 76.3662 222.633 76.3637 222.631C76.3637 222.623 76.3637 222.618 76.3662 222.61Z" fill="#94B7ED"/>
<path d="M125.03 221.438C125.022 221.397 125.002 221.363 124.986 221.328C125.102 220.691 124.147 220.229 123.78 220.891C122.6 223.026 118.715 230.67 123.547 231.434C128.296 232.186 125.392 223.285 125.03 221.438Z" fill="#6093B1"/>
<path d="M74.9755 136.073C74.9268 131.908 78.2623 128.496 82.4267 128.447C86.591 128.398 90.0036 131.736 90.0523 135.898C90.1011 140.063 86.7629 143.475 82.6011 143.524C78.4368 143.573 75.0243 140.237 74.9755 136.073Z" fill="white"/>
<path d="M79.6708 137.681C79.6426 135.185 81.644 133.135 84.1405 133.106C86.6396 133.078 88.6872 135.08 88.7154 137.576C88.7436 140.075 86.7423 142.123 84.2457 142.151C81.7466 142.179 79.6991 140.178 79.6708 137.681Z" fill="#14242B"/>
<path d="M77.4105 137.707C77.3951 136.457 78.3957 135.434 79.6453 135.418C80.8949 135.403 81.9186 136.404 81.934 137.653C81.9494 138.903 80.9487 139.926 79.6992 139.942C78.4496 139.957 77.4259 138.957 77.413 137.707H77.4105Z" fill="white"/>
<path d="M113.419 135.629C113.37 131.464 116.706 128.052 120.87 128.003C125.035 127.954 128.447 131.29 128.496 135.454C128.545 139.619 125.209 143.031 121.045 143.08C116.881 143.129 113.468 139.791 113.419 135.629Z" fill="white"/>
<path d="M118.117 137.237C118.089 134.738 120.09 132.691 122.587 132.663C125.086 132.634 127.134 134.636 127.162 137.132C127.19 139.631 125.189 141.679 122.692 141.707C120.193 141.735 118.145 139.734 118.117 137.237Z" fill="#14242B"/>
<path d="M115.854 137.263C115.839 136.014 116.84 134.99 118.089 134.974C119.339 134.959 120.362 135.96 120.375 137.209C120.391 138.459 119.39 139.483 118.14 139.498C116.891 139.513 115.867 138.51 115.852 137.263H115.854Z" fill="white"/>
<path d="M122.674 64.9529L117.024 87.8914C116.727 89.1025 117.576 90.2982 118.82 90.4085L123.724 90.8524C124.519 90.9242 125.086 91.6581 124.955 92.4458L122.218 108.893C122.135 109.388 122.823 109.601 123.033 109.144L133.874 85.7156C134.51 84.3403 133.63 82.7392 132.129 82.5391L125.178 81.6154C124.257 81.4922 123.57 80.7071 123.572 79.7783L123.608 65.0632C123.608 64.5039 122.808 64.4064 122.674 64.9478V64.9529Z" fill="#FED24F"/>
<path d="M128.304 88.0582C126.669 86.7702 122.777 88.1198 120.645 86.8805C118.818 85.8208 122.356 69.3841 123.408 64.6861C123.162 64.5167 122.764 64.5809 122.672 64.9529L117.022 87.894C116.724 89.1051 117.573 90.3008 118.818 90.4111L123.721 90.855C124.517 90.9268 125.084 91.6607 124.953 92.4484L122.215 108.895C122.133 109.391 122.821 109.604 123.031 109.147L123.377 108.398C124.937 103.73 129.674 89.1384 128.301 88.0582H128.304Z" fill="#F9EC6C"/>
<path d="M95.7742 160.51C96.8159 157.49 98.4709 153.59 102.232 153.548C105.878 153.51 107.721 157.774 108.375 160.846C108.598 161.89 110.194 161.428 109.974 160.386C109.183 156.681 106.661 151.642 102.217 151.783C97.6524 151.927 95.4612 156.338 94.1654 160.086C93.8165 161.1 95.4253 161.515 95.7742 160.51Z" fill="#14242B"/>
<path d="M91.1991 114.843C90.3549 113.86 89.2388 112.639 87.8327 112.631C86.8038 112.626 85.8314 113.273 85.6569 114.309C85.5286 115.071 85.857 115.779 86.324 116.408C87.1605 118.53 89.2285 120.832 91.6096 120.639C92.7668 120.547 93.4442 119.564 93.3108 118.456C93.1491 117.085 92.0638 115.849 91.1991 114.84V114.843Z" fill="#14242B"/>
<path d="M119.626 113.958C119.6 113.829 119.557 113.709 119.49 113.604C118.777 112.064 116.881 112.151 115.603 112.934C114.62 113.537 113.748 114.44 113.096 115.459C112.403 116.246 111.852 117.152 111.515 118.173C111.036 119.636 111.798 120.86 113.399 120.749C115.182 120.626 117.058 118.959 118.235 117.73C119.133 116.793 120.003 115.3 119.624 113.955L119.626 113.958ZM113.712 118.063C113.722 118.009 113.74 117.955 113.753 117.899C113.791 117.935 113.835 117.96 113.879 117.989C113.891 118.019 113.907 118.05 113.925 118.081C113.876 118.117 113.827 118.153 113.779 118.181C113.676 118.243 113.617 118.281 113.589 118.304C113.625 118.268 113.691 118.186 113.714 118.06L113.712 118.063Z" fill="#14242B"/>
<path d="M150.452 159.265C150.421 159.275 150.388 159.286 150.357 159.296C150.416 159.334 150.475 159.373 150.532 159.414C150.503 159.365 150.478 159.314 150.452 159.263V159.265Z" fill="#8AA7B5"/>
<path d="M158.534 142.538C158.759 142.497 158.733 142.655 158.534 142.538Z" fill="#8AA7B5"/>
<path d="M28.8753 145.825C27.949 151.065 30.2993 156.651 34.3097 160.063C38.2739 163.435 43.2157 164.751 48.2268 165.531C48.4166 167.766 49.1505 169.965 50.459 172.007C53.1275 176.177 57.3765 178.586 61.9052 180.279C70.9703 183.666 80.8077 185.821 90.3423 187.364C109.83 190.519 130.621 190.068 148.412 180.579C155.72 176.682 162.281 168.972 161.418 160.792C169.011 157.492 173.737 148.034 170.058 140.06C168.125 135.87 164.585 133.183 160.572 132.016C160.035 133.838 148.256 171.987 100.677 173.077C51.937 174.193 42.6256 135.518 42.6256 135.518L42.4691 135.467C42.4844 135.5 42.4998 135.534 42.5178 135.57C36.1109 135.837 30.1864 138.428 28.8778 145.825H28.8753ZM158.534 142.538C158.758 142.497 158.732 142.654 158.534 142.538ZM150.452 159.265C150.478 159.316 150.503 159.365 150.532 159.416C150.475 159.375 150.416 159.337 150.357 159.298C150.388 159.288 150.421 159.278 150.452 159.268V159.265Z" fill="#6093B1"/>
<path d="M72.0119 158.952L63.0495 185.301C62.5748 186.694 63.4523 188.18 64.902 188.439L70.611 189.457C71.5372 189.622 72.1274 190.54 71.8939 191.454L67.0111 210.477C66.8649 211.049 67.65 211.37 67.9451 210.856L83.0501 184.462C83.9379 182.912 83.0681 180.944 81.3233 180.556L73.2589 178.768C72.1915 178.532 71.4654 177.539 71.5603 176.449L73.0973 159.181C73.1563 158.524 72.2249 158.326 72.0145 158.952H72.0119Z" fill="#F9EC6C"/>
<path d="M76.2736 186.642C74.4853 184.964 69.7821 186.152 67.4036 184.482C65.3663 183.053 71.1882 164.122 72.9047 158.713C72.6327 158.488 72.158 158.526 72.0144 158.952L63.0519 185.301C62.5772 186.694 63.4547 188.179 64.9044 188.439L70.6134 189.457C71.5397 189.621 72.1298 190.54 71.8963 191.453L67.0136 210.477C66.8673 211.049 67.6524 211.369 67.9475 210.856L68.4299 210.012C70.734 204.693 77.7772 188.051 76.2762 186.642H76.2736Z" fill="#FBBE0D"/>
<path d="M56.6015 146.716C56.5605 143.198 59.3803 140.311 62.8981 140.273C66.4158 140.232 69.3024 143.052 69.3434 146.569C69.3845 150.087 66.5646 152.974 63.0469 153.012C59.5291 153.053 56.6426 150.233 56.6041 146.716H56.6015Z" fill="#F4A7B7"/>
<path d="M133.602 145.828C133.561 142.31 136.381 139.424 139.899 139.383C143.416 139.341 146.303 142.161 146.341 145.679C146.382 149.197 143.563 152.083 140.045 152.122C136.527 152.16 133.641 149.343 133.599 145.825L133.602 145.828Z" fill="#F4A7B7"/>
<path d="M145.98 163.075C144.851 162.39 144.06 162.67 142.808 162.496C142.475 162.524 142.139 162.549 141.802 162.57C140.54 161.854 139.881 160.889 139.819 159.673C139.565 158.639 139.56 157.474 139.434 156.417C139.419 156.294 139.383 156.186 139.332 156.091C139.352 156.022 139.37 155.95 139.393 155.881C139.704 154.855 138.095 154.436 137.784 155.458C136.691 159.057 136.081 162.701 135.916 166.46C135.893 167.006 136.481 167.389 136.979 167.25C138.426 166.845 139.868 166.593 141.348 166.475C140.876 169.829 140.609 173.193 140.586 176.587C140.581 177.372 141.79 177.757 142.139 176.99C144.045 172.815 145.461 168.51 146.375 164.009C146.449 163.637 146.311 163.276 145.982 163.075H145.98ZM142.97 166.842C142.97 166.868 142.97 166.896 142.97 166.922C142.965 166.922 142.957 166.922 142.952 166.922C142.957 166.883 142.962 166.847 142.967 166.809C142.967 166.819 142.97 166.829 142.972 166.84L142.97 166.842ZM144.461 164.72C144.32 164.5 144.137 164.305 143.924 164.133C144.16 164.156 144.389 164.202 144.615 164.276C144.576 164.451 144.54 164.625 144.502 164.8C144.486 164.774 144.476 164.746 144.461 164.72Z" fill="#F9EC6C"/>
</g>
<defs>
<clipPath id="clip0_56_39">
<rect width="142.655" height="172.177" fill="white" transform="translate(28.6725 64.5911)"/>
</clipPath>
</defs>
</svg>
