<svg width="201" height="301" viewBox="0 0 201 301" fill="none" xmlns="http://www.w3.org/2000/svg">
<path d="M0.104004 20.8278C0.104004 9.47649 9.3061 0.274414 20.6575 0.274414H179.551C190.902 0.274414 200.104 9.47651 200.104 20.8279V279.721C200.104 291.072 190.902 300.274 179.551 300.274H20.6574C9.30609 300.274 0.104004 291.072 0.104004 279.721V20.8278Z" fill="#FF3B30"/>
<path fill-rule="evenodd" clip-rule="evenodd" d="M20.6575 9.26661H179.551C185.936 9.26661 191.112 14.4428 191.112 20.8279V279.721C191.112 286.106 185.936 291.282 179.551 291.282H20.6574C14.2723 291.282 9.0962 286.106 9.0962 279.721V20.8278C9.0962 14.4428 14.2723 9.26661 20.6575 9.26661ZM0.104004 20.8278C0.104004 9.47649 9.3061 0.274414 20.6575 0.274414H179.551C190.902 0.274414 200.104 9.47651 200.104 20.8279V279.721C200.104 291.072 190.902 300.274 179.551 300.274H20.6574C9.30609 300.274 0.104004 291.072 0.104004 279.721V20.8278ZM81.3795 97.076C82.7235 97.0637 83.823 98.1432 83.8354 99.4872L83.935 110.335C83.9474 111.679 82.8679 112.779 81.5239 112.791C80.1799 112.804 79.0804 111.724 79.068 110.38L78.9684 99.5319C78.956 98.1879 80.0355 97.0884 81.3795 97.076ZM107.848 111.125C108.799 110.174 108.799 108.634 107.848 107.683C106.898 106.733 105.357 106.733 104.407 107.683L96.7357 115.354C95.7853 116.305 95.7853 117.846 96.7357 118.796C97.6861 119.746 99.227 119.746 100.177 118.796L107.848 111.125ZM81.3786 121.784C74.4366 121.784 68.8089 127.411 68.8089 134.353C68.8089 138.305 70.6295 141.83 73.4871 144.138C74.3652 144.847 75.3397 145.44 76.387 145.894C77.6203 146.428 78.1869 147.861 77.6526 149.094C77.1183 150.328 75.6854 150.894 74.4521 150.36C72.9964 149.729 71.6447 148.906 70.4287 147.924C66.4763 144.732 63.9417 139.838 63.9417 134.353C63.9417 124.723 71.7485 116.917 81.3786 116.917C86.0427 116.917 90.2834 118.751 93.4103 121.733C94.383 122.66 94.4196 124.2 93.4921 125.173C92.5646 126.146 91.0242 126.183 90.0515 125.255C87.7935 123.102 84.7426 121.784 81.3786 121.784ZM91.8632 152.686L86.7386 153.22C81.9006 153.723 78.1255 157.821 78.1255 162.795C78.1255 168.112 82.4359 172.423 87.7531 172.423H133.813C141.698 172.423 148.089 166.031 148.089 158.147C148.089 150.262 141.698 143.87 133.813 143.87C132.42 143.87 131.081 144.069 129.819 144.435L124.941 145.853L123.733 140.918C121.948 133.621 115.358 128.21 107.517 128.21C98.2974 128.21 90.8233 135.684 90.8233 144.904C90.8233 145.825 90.8975 146.725 91.0392 147.6L91.8632 152.686ZM127.949 138.001C125.071 129.479 117.011 123.343 107.517 123.343C95.6093 123.343 85.9561 132.996 85.9561 144.904C85.9561 145.25 85.9643 145.594 85.9804 145.936C86.0194 146.764 86.105 147.578 86.2346 148.379C85.6828 148.436 85.1401 148.525 84.6084 148.642C78.1151 150.079 73.2583 155.87 73.2583 162.795C73.2583 170.8 79.7479 177.29 87.7531 177.29H133.813C144.386 177.29 152.956 168.719 152.956 158.147C152.956 147.574 144.386 139.003 133.813 139.003C132.522 139.003 131.262 139.131 130.042 139.375C129.507 139.482 128.979 139.611 128.461 139.762C128.315 139.165 128.144 138.577 127.949 138.001ZM58.234 108.589C57.2572 107.666 55.7169 107.709 54.7937 108.686C53.8705 109.663 53.914 111.203 54.8908 112.126L62.7752 119.578C63.752 120.501 65.2923 120.458 66.2155 119.481C67.1386 118.504 67.0952 116.964 66.1184 116.041L58.234 108.589ZM44.8185 134.321C44.8455 132.977 45.9567 131.91 47.3005 131.937L58.1469 132.155C59.4907 132.182 60.5582 133.293 60.5311 134.637C60.5041 135.981 59.3929 137.048 58.0491 137.021L47.2027 136.803C45.8589 136.776 44.7915 135.665 44.8185 134.321ZM55.1011 156.837C54.1271 157.764 54.0883 159.304 55.0145 160.278C55.9407 161.252 57.4811 161.291 58.455 160.365L66.3167 152.889C67.2907 151.963 67.3295 150.422 66.4033 149.448C65.4771 148.474 63.9368 148.436 62.9628 149.362L55.1011 156.837ZM83.8692 189.042L83.8654 189.047C83.7311 189.211 83.5307 189.308 83.3186 189.31L83.3126 189.31C83.2997 189.31 83.2868 189.31 83.2739 189.309C83.2678 189.309 83.2618 189.309 83.2558 189.308L82.8464 189.277L81.0324 189.14C80.5279 189.102 80.1434 189.584 80.2929 190.067L80.8306 191.805L80.9519 192.197C80.9575 192.215 80.9624 192.234 80.9665 192.252L80.9678 192.258C81.0126 192.465 80.9631 192.682 80.8327 192.85L80.829 192.855C80.8173 192.869 80.805 192.884 80.792 192.898L80.5125 193.198L79.2741 194.531C78.9297 194.902 79.0669 195.503 79.5381 195.687L81.232 196.35L81.6143 196.5C81.632 196.507 81.6494 196.515 81.6663 196.523L81.6717 196.526C81.8618 196.62 82.0005 196.794 82.0501 197L82.0515 197.006L82.0536 197.015C82.0546 197.02 82.0555 197.024 82.0565 197.029C82.0586 197.04 82.0605 197.051 82.0622 197.062L82.123 197.468L82.3927 199.267C82.4677 199.767 83.0233 200.035 83.4613 199.781L85.036 198.871L85.3914 198.665C85.4079 198.655 85.4246 198.647 85.4417 198.639L85.4471 198.636C85.6393 198.546 85.8618 198.546 86.054 198.636L86.0594 198.639C86.0764 198.647 86.0932 198.655 86.1097 198.665L86.4651 198.871L88.0398 199.781C88.4778 200.035 89.0334 199.767 89.1084 199.267L89.3781 197.468L89.4389 197.062C89.4418 197.043 89.4453 197.024 89.4496 197.006L89.451 197C89.5006 196.794 89.6393 196.62 89.8294 196.526L89.8348 196.523C89.8517 196.515 89.8691 196.507 89.8868 196.5L90.2691 196.35L91.963 195.687C92.4342 195.503 92.5714 194.902 92.227 194.531L90.9885 193.198L90.7091 192.898L90.6962 192.883C90.6933 192.88 90.6904 192.877 90.6876 192.873L90.6821 192.867L90.6721 192.854L90.6683 192.85C90.538 192.682 90.4885 192.465 90.5333 192.258L90.5346 192.252C90.5387 192.234 90.5436 192.215 90.5492 192.197L90.6705 191.805L91.2081 190.067C91.3577 189.584 90.9732 189.102 90.4687 189.14L88.6547 189.277L88.2453 189.308C88.2263 189.31 88.2074 189.31 88.1885 189.31L88.1825 189.31C87.9704 189.308 87.77 189.211 87.6357 189.047L87.6319 189.042L87.6255 189.034L87.6146 189.02C87.6089 189.012 87.6035 189.004 87.5981 188.997L87.3671 188.657L86.3436 187.153C86.0589 186.735 85.4422 186.735 85.1575 187.153L84.134 188.657L83.903 188.997C83.8923 189.012 83.881 189.028 83.8692 189.042ZM89.3925 186.098L90.2334 186.035C92.9284 185.83 94.9819 188.406 94.1832 190.988L93.934 191.793L94.5081 192.411C96.348 194.391 95.615 197.602 93.0984 198.587L92.3132 198.894L92.1881 199.728C91.7875 202.401 88.82 203.83 86.4805 202.477L85.7505 202.055L85.0205 202.477C82.6811 203.83 79.7136 202.401 79.313 199.728L79.1879 198.894L78.4027 198.587C75.886 197.602 75.1531 194.391 76.993 192.411L77.5671 191.793L77.3179 190.988C76.5192 188.406 78.5727 185.83 81.2677 186.035L82.1086 186.098L82.5831 185.401C84.1037 183.167 87.3974 183.167 88.918 185.401L89.3925 186.098ZM111.494 189.312L111.499 189.308C111.543 189.27 111.582 189.226 111.616 189.176L111.838 188.85L112.822 187.404C113.095 187.002 113.688 187.002 113.962 187.404L114.946 188.85L115.168 189.176C115.202 189.226 115.241 189.27 115.285 189.308L115.29 189.312C115.381 189.39 115.491 189.443 115.608 189.466L115.615 189.467C115.672 189.477 115.731 189.481 115.79 189.476L116.184 189.446L117.928 189.314C118.413 189.277 118.783 189.741 118.639 190.206L118.122 191.877L118.006 192.254C117.988 192.311 117.978 192.369 117.975 192.427L117.975 192.434C117.971 192.553 117.998 192.672 118.054 192.778L118.057 192.784C118.085 192.835 118.119 192.883 118.159 192.927L118.428 193.216L119.619 194.497C119.95 194.854 119.818 195.432 119.365 195.609L117.736 196.247L117.369 196.391C117.313 196.412 117.262 196.441 117.215 196.475L117.209 196.479C117.113 196.55 117.037 196.646 116.989 196.755L116.986 196.762C116.963 196.815 116.947 196.872 116.938 196.931L116.88 197.321L116.62 199.051C116.548 199.532 116.014 199.789 115.593 199.545L114.079 198.67L113.737 198.472C113.686 198.442 113.631 198.42 113.575 198.404L113.569 198.402C113.453 198.372 113.331 198.372 113.215 198.402L113.208 198.404C113.153 198.42 113.098 198.442 113.047 198.472L112.705 198.67L111.191 199.545C110.77 199.789 110.236 199.532 110.164 199.051L109.904 197.321L109.846 196.931C109.837 196.872 109.821 196.815 109.798 196.762L109.795 196.755C109.747 196.646 109.671 196.55 109.575 196.479L109.569 196.475C109.522 196.441 109.471 196.412 109.415 196.391L109.048 196.247L107.419 195.609C106.966 195.432 106.834 194.854 107.165 194.497L108.356 193.216L108.625 192.927C108.665 192.883 108.699 192.835 108.727 192.784L108.73 192.778C108.786 192.672 108.813 192.553 108.809 192.434L108.808 192.427C108.806 192.369 108.796 192.311 108.778 192.254L108.662 191.877L108.145 190.206C108.001 189.741 108.371 189.277 108.856 189.314L110.6 189.446L110.993 189.476C111.053 189.481 111.112 189.477 111.169 189.467L111.176 189.466C111.293 189.443 111.403 189.39 111.494 189.312ZM117.693 186.209L116.954 186.265L116.537 185.652C115.027 183.434 111.757 183.434 110.247 185.652L109.83 186.265L109.091 186.209C106.415 186.006 104.377 188.563 105.17 191.126L105.389 191.834L104.884 192.377C103.057 194.343 103.785 197.531 106.284 198.509L106.974 198.779L107.084 199.512C107.482 202.166 110.428 203.585 112.75 202.241L113.392 201.87L114.034 202.241C116.356 203.585 119.302 202.166 119.7 199.512L119.81 198.779L120.5 198.509C122.999 197.531 123.726 194.343 121.9 192.377L121.395 191.834L121.614 191.126C122.407 188.563 120.368 186.006 117.693 186.209ZM138.856 189.023L138.851 189.028C138.76 189.106 138.65 189.159 138.532 189.181L138.525 189.183C138.468 189.193 138.409 189.196 138.35 189.192L137.956 189.162L136.212 189.03C135.727 188.993 135.358 189.456 135.501 189.921L136.018 191.592L136.135 191.969C136.153 192.026 136.163 192.084 136.165 192.142L136.165 192.149C136.17 192.269 136.142 192.388 136.087 192.494L136.083 192.5C136.056 192.551 136.022 192.599 135.981 192.643L135.713 192.932L134.522 194.213C134.191 194.569 134.323 195.147 134.776 195.325L136.404 195.962L136.772 196.106C136.827 196.128 136.879 196.156 136.926 196.19L136.932 196.195C137.028 196.266 137.104 196.361 137.152 196.471L137.155 196.477C137.177 196.531 137.194 196.587 137.202 196.646L137.261 197.036L137.52 198.766C137.592 199.247 138.127 199.505 138.548 199.261L140.062 198.385L140.403 198.188C140.455 198.158 140.509 198.135 140.565 198.12L140.572 198.118C140.688 198.087 140.81 198.087 140.925 198.118L140.932 198.12C140.988 198.135 141.042 198.158 141.094 198.188L141.436 198.385L142.95 199.261C143.371 199.505 143.905 199.247 143.977 198.766L144.236 197.036L144.295 196.646C144.304 196.587 144.32 196.531 144.343 196.477L144.346 196.471C144.394 196.361 144.47 196.266 144.566 196.195L144.571 196.19C144.618 196.156 144.67 196.128 144.725 196.106L145.093 195.962L146.722 195.325C147.175 195.147 147.307 194.569 146.975 194.213L145.785 192.932L145.516 192.643C145.475 192.599 145.441 192.551 145.414 192.5L145.41 192.494C145.355 192.388 145.328 192.269 145.332 192.149L145.332 192.142C145.335 192.084 145.345 192.026 145.362 191.969L145.479 191.592L145.996 189.921C146.14 189.456 145.77 188.993 145.285 189.03L143.541 189.162L143.147 189.192C143.088 189.196 143.029 189.193 142.972 189.183L142.965 189.181C142.847 189.159 142.738 189.106 142.647 189.028L142.641 189.023C142.598 188.985 142.558 188.941 142.525 188.892L142.303 188.566L141.319 187.12C141.045 186.718 140.452 186.718 140.178 187.12L139.194 188.566L138.972 188.892C138.939 188.941 138.9 188.985 138.856 189.023ZM144.31 185.98L145.05 185.924C147.725 185.722 149.764 188.278 148.971 190.842L148.752 191.55L149.256 192.093C151.083 194.058 150.355 197.246 147.857 198.224L147.167 198.495L147.057 199.228C146.659 201.881 143.713 203.3 141.39 201.957L140.749 201.585L140.107 201.957C137.784 203.3 134.838 201.881 134.441 199.228L134.331 198.495L133.64 198.224C131.142 197.246 130.414 194.058 132.241 192.093L132.745 191.55L132.526 190.842C131.733 188.278 133.772 185.722 136.448 185.924L137.187 185.98L137.604 185.368C139.114 183.149 142.384 183.149 143.893 185.368L144.31 185.98Z" fill="white"/>
<path fill-rule="evenodd" clip-rule="evenodd" d="M27.5789 24.6595C27.5789 27.2504 25.4786 29.3507 22.8877 29.3507C20.2969 29.3507 18.1965 27.2504 18.1965 24.6595C18.1965 22.0686 20.2969 19.9683 22.8877 19.9683C25.4786 19.9683 27.5789 22.0686 27.5789 24.6595ZM30.2128 20.1294H169.996L168.726 23.4127C168.369 24.3366 168.172 25.3411 168.172 26.3964C168.172 30.9955 171.945 34.7648 176.649 34.7648C177.448 34.7648 178.218 34.6563 178.945 34.4548L182.002 33.608V266.939L178.945 266.093C178.218 265.891 177.448 265.783 176.649 265.783C171.945 265.783 168.172 269.552 168.172 274.152C168.172 275.207 168.369 276.212 168.726 277.136L169.996 280.419H30.3446L31.6317 277.127C31.9923 276.205 32.1904 275.204 32.1904 274.152C32.1904 269.577 28.3889 265.783 23.592 265.783C22.779 265.783 21.9962 265.892 21.2565 266.094L18.2059 266.93V33.6081L21.263 34.4548C21.9905 34.6563 22.76 34.7648 23.5593 34.7648C28.2641 34.7648 32.0366 30.9953 32.0366 26.3964C32.0366 25.3412 31.8399 24.3367 31.4826 23.4128L30.2128 20.1294ZM36.784 24.9554C36.836 25.4291 36.8626 25.9099 36.8626 26.3964C36.8626 33.7063 30.8836 39.5908 23.5593 39.5908C23.3828 39.5908 23.207 39.5874 23.032 39.5806V260.968C23.2178 260.96 23.4045 260.957 23.592 260.957C30.958 260.957 37.0165 266.817 37.0165 274.152C37.0165 274.638 36.9896 275.119 36.9371 275.593H163.425C163.373 275.119 163.346 274.638 163.346 274.152C163.346 266.842 169.325 260.957 176.649 260.957C176.825 260.957 177.001 260.96 177.176 260.967V39.5806C177.001 39.5874 176.825 39.5908 176.649 39.5908C169.325 39.5908 163.346 33.7061 163.346 26.3964C163.346 25.9099 163.373 25.4291 163.425 24.9554H36.784ZM22.8877 279.023C25.4786 279.023 27.5789 276.923 27.5789 274.332C27.5789 271.741 25.4786 269.641 22.8877 269.641C20.2969 269.641 18.1965 271.741 18.1965 274.332C18.1965 276.923 20.2969 279.023 22.8877 279.023ZM182.012 24.6595C182.012 27.2504 179.911 29.3507 177.32 29.3507C174.73 29.3507 172.629 27.2504 172.629 24.6595C172.629 22.0686 174.73 19.9683 177.32 19.9683C179.911 19.9683 182.012 22.0686 182.012 24.6595ZM177.019 279.023C179.61 279.023 181.71 276.923 181.71 274.332C181.71 271.741 179.61 269.641 177.019 269.641C174.428 269.641 172.328 271.741 172.328 274.332C172.328 276.923 174.428 279.023 177.019 279.023Z" fill="#FF5748"/>
</svg>
