<svg width="201" height="301" viewBox="0 0 201 301" fill="none" xmlns="http://www.w3.org/2000/svg">
<rect x="0.73291" y="0.67981" width="200" height="300" rx="14.812" fill="white"/>
<g clip-path="url(#clip0_56_31)">
<path d="M152.521 150.161C152.521 196.147 91.1489 216.837 59.112 182.681C29.6205 151.313 52.9123 100.662 99.2683 100.662C128.219 100.662 152.535 122.404 152.535 150.161H152.521Z" fill="#FFC200"/>
<path d="M59.112 182.667C49.0729 172.002 44.9777 158.294 46.2006 146.137C48.4046 171.121 70.9712 191.455 99.254 191.455C127.537 191.455 150.089 171.476 152.336 146.066C156.815 193.801 92.5992 218.372 59.112 182.667Z" fill="#FFAC00"/>
<path d="M115.379 91.8177C115.379 91.8177 103.463 90.3957 96.8082 91.8177C99.7944 80.0011 105.468 66.6489 111.156 77.4985C114.014 82.9304 115.379 91.8177 115.379 91.8177Z" fill="#FFC200"/>
<path d="M142.311 111.355C142.311 111.355 135.4 100.876 128.731 99.4393C150.004 86.855 161.764 91.9029 142.311 111.355Z" fill="#FFC200"/>
<path d="M156.602 139.482C156.161 136.865 153.886 124.438 152.236 122.319C180.974 124.253 181.344 135.714 156.602 139.482Z" fill="#FFC200"/>
<path d="M157.782 167.111C158.223 164.679 160.612 151.426 160.157 148.995C163.655 149.791 175.969 153.062 176.609 156.616C177.32 160.655 157.782 167.096 157.782 167.096V167.111Z" fill="#FFC200"/>
<path d="M163.37 195.948C161.365 200.47 140.477 192.834 140.477 192.834C142.908 190.516 151.326 182.112 152.236 178.785C155.322 181.771 165.119 191.981 163.385 195.948H163.37Z" fill="#FFC200"/>
<path d="M115.379 207.622C119.673 206.428 127.053 203.442 128.731 199.659C139.723 224.117 125.361 226.947 115.379 207.622Z" fill="#FFC200"/>
<path d="M96.794 209.954C96.794 209.954 90.836 228.568 86.0724 227.857C81.2946 227.146 78.4507 205.461 78.4507 205.461C81.4937 207.039 93.6799 209.428 96.8082 209.954H96.794Z" fill="#FFC200"/>
<path d="M61.5436 196.417C61.5436 196.417 46.9969 207.381 43.6695 204.267C40.6976 201.536 46.9969 186.705 48.6606 183.065C57.6189 192.322 43.5131 177.733 61.5436 196.417Z" fill="#FFC200"/>
<path d="M41.764 159.958C37.4412 160.015 24.8426 159.304 24.8426 154.967C24.3734 149.72 42.8874 143.293 42.8874 143.293C40.5838 145.952 41.3516 156.432 41.764 159.958Z" fill="#FFC200"/>
<path d="M55.813 112.308C55.813 112.308 47.7079 121.835 47.7079 125.646C22.5107 111.142 26.9898 103.364 55.813 112.308Z" fill="#FFC200"/>
<path d="M81.3088 92.6851C81.3088 92.6851 66.7764 97.5908 65.3544 100.662C59.6239 72.7918 70.2744 69.4502 81.3088 92.6851Z" fill="#FFC200"/>
<path d="M121.579 150.161C121.579 153.36 113.915 163.229 104.601 163.229C95.2868 163.229 86.7408 154.498 86.7408 151.625C86.7408 148.91 95.3153 151.625 105.127 151.625C114.938 151.625 121.579 147.459 121.579 150.161Z" fill="#442C1E"/>
<path d="M116.886 157.584C111.312 163.087 104.601 164.864 97.1211 161.565C98.3298 158.579 101.088 154.157 106.023 158.053C106.023 158.053 110.488 150.815 116.886 157.598V157.584Z" fill="#BE1622"/>
<path d="M81.707 143.193C80.2992 140.648 79.1901 137.69 76.2751 136.226C69.7198 134.121 70.6157 145.468 70.4024 145.468C70.3455 146.165 70.829 146.819 71.5399 146.919C73.8009 147.217 72.8908 142.07 74.782 139.724C76.204 141.103 76.7728 143.407 77.5548 145.269C78.9626 147.971 83.0152 145.938 81.6928 143.193H81.707Z" fill="#442C1E"/>
<path d="M130.082 133.069C129.101 130.211 126.186 127.395 123.385 130.168C120.854 133.012 120.612 137.193 120.328 137.193C119.858 138.842 122.276 139.61 122.844 137.989C123.499 136.226 124.338 133.666 125.731 132.486C127.892 135.316 126.499 140.577 129.983 139.61C132.884 138.586 130.68 135.131 130.097 133.069H130.082Z" fill="#442C1E"/>
<path opacity="0.4" d="M69.8052 154.299C67.1461 157.569 65.5961 156.361 68.2694 153.062C70.9285 149.791 72.4784 151 69.8052 154.299Z" fill="#FF8500"/>
<path opacity="0.4" d="M73.9858 153.886C71.3267 157.157 69.7768 155.948 72.4501 152.649C75.1092 149.379 76.6591 150.587 73.9858 153.886Z" fill="#FF8500"/>
<path opacity="0.4" d="M78.465 153.431C75.749 156.773 74.1422 155.536 76.9008 152.152C79.6168 148.81 81.2236 150.047 78.465 153.431Z" fill="#FF8500"/>
<path opacity="0.4" d="M130.48 148.184C127.764 151.526 126.157 150.289 128.916 146.905C131.632 143.563 133.239 144.8 130.48 148.184Z" fill="#FF8500"/>
<path opacity="0.4" d="M134.775 147.772C132.059 151.114 130.452 149.876 133.211 146.492C135.926 143.151 137.533 144.388 134.775 147.772Z" fill="#FF8500"/>
<path opacity="0.4" d="M139.055 147.345C136.339 150.687 134.732 149.45 137.491 146.066C140.207 142.724 141.813 143.961 139.055 147.345Z" fill="#FF8500"/>
<path opacity="0.4" d="M116.886 111.711C116.886 113.759 112.521 113.759 112.521 111.711C112.521 109.663 116.886 109.663 116.886 111.711Z" fill="#FF8500"/>
<path opacity="0.4" d="M121.579 111.299C121.579 113.901 119.19 113.901 119.19 111.299C119.19 108.696 121.579 108.696 121.579 111.299Z" fill="#FF8500"/>
<path opacity="0.4" d="M118.834 116.901C118.834 118.551 116.332 118.551 116.332 116.901C116.332 115.252 118.834 115.252 118.834 116.901Z" fill="#FF8500"/>
<path opacity="0.4" d="M77.1141 187.431C77.1141 189.891 73.3885 189.891 73.3885 187.431C73.3885 184.971 77.1141 184.971 77.1141 187.431Z" fill="#FF8500"/>
<path opacity="0.4" d="M84.7642 184.316C84.7642 185.966 80.8396 185.966 80.8396 184.316C80.8396 182.667 84.7642 182.667 84.7642 184.316Z" fill="#FF8500"/>
<path opacity="0.4" d="M90.5517 193.431C90.5517 195.948 86.7408 195.948 86.7408 193.431C86.7408 190.914 90.5517 190.914 90.5517 193.431Z" fill="#FF8500"/>
<path opacity="0.4" d="M59.1121 182.667C65.3119 180.335 63.6482 171.049 56.9792 171.049C55.0453 171.049 53.3247 171.959 52.2156 173.381L59.0979 182.667H59.1121Z" fill="#FF8500"/>
<path opacity="0.4" d="M71.7247 177.022C71.7247 178.799 69.0372 178.799 69.0372 177.022C69.0372 175.244 71.7247 175.244 71.7247 177.022Z" fill="#FF8500"/>
<path opacity="0.4" d="M57.7185 160.911C57.7185 162.176 55.8131 162.176 55.8131 160.911C55.8131 159.645 57.7185 159.645 57.7185 160.911Z" fill="#FF8500"/>
<path opacity="0.4" d="M52.2013 149.805C52.2013 153.901 46.0157 153.901 46.0157 149.805C46.0157 145.71 52.2013 145.71 52.2013 149.805Z" fill="#FF8500"/>
<path opacity="0.4" d="M118.835 187.473C118.835 191.654 112.521 191.654 112.521 187.473C112.521 183.293 118.835 183.293 118.835 187.473Z" fill="#FF8500"/>
<path opacity="0.4" d="M96.2964 107.843C92.713 107.843 90.0539 104.558 90.5943 101.316C94.7891 100.662 99.1119 100.549 101.856 100.733C102.766 104.246 100.065 107.843 96.2821 107.843H96.2964Z" fill="#FF8500"/>
<path opacity="0.4" d="M139.439 119.845C139.439 123.456 133.978 123.456 133.978 119.845C133.978 116.233 139.439 116.233 139.439 119.845Z" fill="#FF8500"/>
<path opacity="0.4" d="M149.535 133.766C148.554 135.287 146.122 134.605 146.122 132.756C146.122 131.562 147.245 130.68 148.369 130.936L149.535 133.766Z" fill="#FF8500"/>
<g style="mix-blend-mode:soft-light">
<path d="M52.8412 134.349C52.9123 134.178 59.7804 117.584 79.7874 107.232C80.6121 106.805 81.252 108.042 80.4273 108.469C60.9037 118.579 54.1921 134.704 54.1352 134.875C53.7939 135.728 52.4857 135.216 52.8412 134.349Z" fill="white"/>
</g>
<g style="mix-blend-mode:soft-light">
<path d="M67.6154 123.271C67.0324 123.271 66.7054 122.589 67.0751 122.134C74.9243 112.465 87.8784 106.706 88.3192 109.208C88.3903 109.592 88.1344 109.948 87.7504 110.019C76.3463 112.024 68.6677 123.271 67.6154 123.271Z" fill="white"/>
</g>
<g style="mix-blend-mode:soft-light">
<path d="M143.378 174.832C142.837 174.832 142.51 174.249 142.766 173.78C142.851 173.638 150.886 159.29 148.838 144.373C148.71 143.463 150.103 143.25 150.217 144.189C152.18 158.451 144.6 174.832 143.363 174.832H143.378Z" fill="white"/>
</g>
<path opacity="0.4" d="M81.9488 153.261C81.9488 157.512 64.4871 157.512 64.4871 153.261C64.4871 151.483 70.3313 148.995 75.1518 148.995C79.9722 148.995 81.9346 151.483 81.9346 153.261H81.9488Z" fill="#FF8500"/>
<path opacity="0.4" d="M142.709 148.071C142.709 152.322 125.248 152.322 125.248 148.071C125.248 146.293 131.092 143.805 135.912 143.805C140.733 143.805 142.709 146.293 142.709 148.071Z" fill="#FF8500"/>
<g style="mix-blend-mode:soft-light">
<path d="M81.309 92.6851C81.309 92.6851 66.7765 97.5908 65.3546 100.662C65.3546 100.662 64.8142 98.0032 64.3734 94.4909C65.7243 95.5716 67.1605 95.0882 68.7104 94.4056C72.4217 92.813 77.7257 90.0686 75.8344 86.4995C73.929 82.7313 70.6158 79.8874 67.1036 77.4985C73.0616 75.3087 81.309 92.6851 81.309 92.6851Z" fill="#1D1D1B"/>
</g>
<g style="mix-blend-mode:soft-light">
<path d="M115.379 91.8176C115.379 91.8176 103.463 90.3957 96.8082 91.8176C96.8082 91.8176 97.4055 89.443 98.4293 86.3857C98.671 87.2958 98.9554 88.1063 99.382 88.476C103.435 91.9456 113.701 88.8742 111.156 77.4985C114.014 82.9304 115.379 91.8176 115.379 91.8176Z" fill="#1D1D1B"/>
</g>
<g style="mix-blend-mode:soft-light">
<path d="M142.311 111.355C142.311 111.355 135.4 100.876 128.731 99.4394C128.731 99.4394 129.414 99.027 130.566 98.444C131.533 98.9417 135.699 102.212 142.283 100.577C146.037 99.6385 149.35 97.1643 151.397 93.8653C155.663 97.989 142.311 111.355 142.311 111.355Z" fill="#1D1D1B"/>
</g>
<g style="mix-blend-mode:soft-light">
<path d="M156.602 139.482C154.298 125.987 153.772 132.699 159.147 134.861C163.47 136.595 168.987 134.292 171.461 128.547C171.675 128.078 171.874 127.566 172.116 127.111C173.424 127.978 174.291 129.002 174.462 130.197C175.415 136.624 156.588 139.496 156.588 139.496L156.602 139.482Z" fill="#1D1D1B"/>
</g>
<g style="mix-blend-mode:soft-light">
<path d="M157.782 167.111C159.588 157.214 158.92 158.408 159.531 159.759C160.214 161.352 160.925 162.176 163.413 161.935C168.106 161.465 172.357 158.351 174.476 154.185C175.656 154.953 176.467 155.778 176.623 156.631C177.334 160.669 157.796 167.111 157.796 167.111H157.782Z" fill="#1D1D1B"/>
</g>
<g style="mix-blend-mode:soft-light">
<path d="M163.37 195.948C161.365 200.47 140.477 192.834 140.477 192.834C140.477 192.834 143.278 190.161 146.165 187.018C144.942 191.227 156.73 196.403 158.322 191.042C158.877 189.208 156.204 183.705 155.336 181.97C159.076 186.009 164.735 192.848 163.37 195.934V195.948Z" fill="#1D1D1B"/>
</g>
<g style="mix-blend-mode:soft-light">
<path d="M115.379 207.622C116.389 207.338 117.313 207.054 118.18 206.755C118.849 208.732 121.849 213.794 124.636 215.401C126.385 216.439 128.689 216.737 130.466 215.699C131.405 214.32 132.045 212.727 132.372 211.078C134.846 224.899 123.143 222.624 115.393 207.622H115.379Z" fill="#1D1D1B"/>
</g>
<g style="mix-blend-mode:soft-light">
<path d="M96.794 209.954C96.794 209.954 90.836 228.568 86.0724 227.857C81.2946 227.146 78.4507 205.461 78.4507 205.461C78.8346 205.66 79.3323 205.859 79.9011 206.044C80.0859 206.869 80.1713 207.765 80.285 208.177C81.2093 211.846 84.5225 221.046 88.4755 220.534C91.7745 220.079 94.8175 213.524 96.0973 209.826C96.5381 209.912 96.794 209.954 96.794 209.954Z" fill="#1D1D1B"/>
</g>
<g style="mix-blend-mode:soft-light">
<path d="M61.5435 196.417C61.5435 196.417 46.9968 207.381 43.6694 204.267C42.8021 203.47 42.731 201.65 43.0864 199.403C46.556 205.276 56.0548 196.346 53.1966 187.743L61.5577 196.403L61.5435 196.417Z" fill="#1D1D1B"/>
</g>
<g style="mix-blend-mode:soft-light">
<path d="M41.7641 159.958C41.7641 159.958 25.3404 160.2 24.8285 154.967C25.6532 154.967 26.805 155.877 27.5729 156.105C30.6585 156.972 34.6969 156.218 37.7541 153.701C43.8401 148.71 40.0151 144.999 41.7641 159.958Z" fill="#1D1D1B"/>
</g>
<g style="mix-blend-mode:soft-light">
<path d="M55.8131 112.308C55.8131 112.308 47.7079 121.835 47.7079 125.646C47.7079 125.646 29.5921 115.223 31.3411 110.516C33.3034 113.318 35.4648 115.508 40.4559 117.626C45.4754 119.731 49.7271 119.731 53.2251 114.697C55.3581 111.597 53.9646 111.725 55.8131 112.308Z" fill="#1D1D1B"/>
</g>
</g>
<path d="M28.5895 51.5941C26.4079 51.5941 24.518 51.2908 22.9197 50.6842C21.3331 50.0775 20.0906 49.1967 19.1923 48.0418C18.3057 46.8751 17.8157 45.4635 17.7224 43.8069L17.7049 43.4744H24.5297L24.5647 43.6319C24.6697 44.0869 24.9146 44.4835 25.2996 44.8219C25.6846 45.1602 26.1688 45.4285 26.7521 45.6268C27.3354 45.8135 27.977 45.9068 28.677 45.9068C29.4237 45.9068 30.0595 45.8135 30.5845 45.6268C31.1211 45.4402 31.5353 45.1835 31.8269 44.8569C32.1186 44.5302 32.2644 44.1569 32.2644 43.7369V43.7194C32.2644 43.1244 31.9786 42.6753 31.4069 42.372C30.8353 42.0686 29.8495 41.7886 28.4495 41.532L25.9121 41.077C23.4039 40.6337 21.4789 39.7879 20.1373 38.5396C18.8074 37.2913 18.1424 35.6872 18.1424 33.7272V33.7097C18.1424 32.0181 18.5857 30.554 19.4723 29.3174C20.3706 28.0808 21.6014 27.1241 23.1647 26.4475C24.728 25.7708 26.5071 25.4325 28.502 25.4325C30.7536 25.4325 32.6494 25.7475 34.1893 26.3775C35.7293 27.0075 36.9076 27.9058 37.7242 29.0724C38.5409 30.2274 38.9842 31.5923 39.0542 33.1673L39.0717 33.5522H32.2469L32.2294 33.3772C32.1827 32.9106 31.9961 32.5139 31.6694 32.1873C31.3544 31.849 30.9286 31.5865 30.392 31.3998C29.867 31.2132 29.2662 31.1198 28.5895 31.1198C27.9129 31.1198 27.3412 31.2132 26.8746 31.3998C26.4196 31.5748 26.0754 31.8198 25.8421 32.1348C25.6088 32.4381 25.4921 32.7823 25.4921 33.1673V33.1848C25.4921 33.7564 25.778 34.1997 26.3496 34.5147C26.9212 34.818 27.8371 35.0864 29.097 35.3197L31.6344 35.7747C34.341 36.2647 36.3476 37.0871 37.6542 38.2421C38.9608 39.3971 39.6142 41.0012 39.6142 43.0544V43.0719C39.6142 44.8102 39.1767 46.321 38.3017 47.6043C37.4384 48.8759 36.1843 49.8617 34.5393 50.5617C32.8944 51.25 30.9111 51.5941 28.5895 51.5941ZM48.5214 51.5591C47.1097 51.5591 45.9081 51.2733 44.9165 50.7017C43.9249 50.1184 43.1724 49.2784 42.6591 48.1818C42.1457 47.0851 41.8891 45.7668 41.8891 44.2269V31.8198H49.0638V42.6519C49.0638 43.6202 49.2913 44.3844 49.7463 44.9444C50.2013 45.5043 50.878 45.7843 51.7763 45.7843C52.3479 45.7843 52.8321 45.6502 53.2287 45.3819C53.637 45.1135 53.952 44.746 54.1737 44.2794C54.3953 43.8011 54.5062 43.2644 54.5062 42.6694V31.8198H61.6809V51.1392H54.5062V47.5518H54.3662C53.8995 48.8584 53.1704 49.8559 52.1787 50.5442C51.1988 51.2208 49.9797 51.5591 48.5214 51.5591ZM64.3758 51.1392V31.8198H71.5506V35.4072H71.6906C72.1689 34.1006 72.8981 33.1089 73.878 32.4323C74.858 31.744 76.0771 31.3998 77.5354 31.3998C79.6587 31.3998 81.2919 32.0415 82.4352 33.3248C83.5902 34.608 84.1677 36.4105 84.1677 38.7321V51.1392H76.9929V40.307C76.9929 39.3387 76.7654 38.5746 76.3104 38.0146C75.8555 37.4546 75.1788 37.1746 74.2805 37.1746C73.7205 37.1746 73.2364 37.3088 72.8281 37.5771C72.4197 37.8454 72.1047 38.2129 71.8831 38.6796C71.6614 39.1462 71.5506 39.6829 71.5506 40.2895V51.1392H64.3758Z" fill="#F0A202"/>
<path d="M127.973 277.132C125.791 277.132 123.901 276.829 122.303 276.222C120.716 275.615 119.474 274.735 118.576 273.58C117.689 272.413 117.199 271.001 117.106 269.345L117.088 269.012H123.913L123.948 269.17C124.053 269.625 124.298 270.021 124.683 270.36C125.068 270.698 125.552 270.966 126.135 271.165C126.719 271.351 127.36 271.445 128.06 271.445C128.807 271.445 129.443 271.351 129.968 271.165C130.504 270.978 130.919 270.721 131.21 270.395C131.502 270.068 131.648 269.695 131.648 269.275V269.257C131.648 268.662 131.362 268.213 130.79 267.91C130.219 267.606 129.233 267.326 127.833 267.07L125.295 266.615C122.787 266.172 120.862 265.326 119.521 264.077C118.191 262.829 117.526 261.225 117.526 259.265V259.248C117.526 257.556 117.969 256.092 118.856 254.855C119.754 253.619 120.985 252.662 122.548 251.985C124.111 251.309 125.89 250.97 127.885 250.97C130.137 250.97 132.033 251.285 133.573 251.915C135.113 252.545 136.291 253.444 137.108 254.61C137.924 255.765 138.367 257.13 138.437 258.705L138.455 259.09H131.63L131.613 258.915C131.566 258.448 131.379 258.052 131.053 257.725C130.738 257.387 130.312 257.124 129.775 256.938C129.25 256.751 128.649 256.658 127.973 256.658C127.296 256.658 126.725 256.751 126.258 256.938C125.803 257.113 125.459 257.358 125.225 257.673C124.992 257.976 124.875 258.32 124.875 258.705V258.723C124.875 259.294 125.161 259.738 125.733 260.053C126.305 260.356 127.22 260.624 128.48 260.858L131.018 261.313C133.724 261.802 135.731 262.625 137.038 263.78C138.344 264.935 138.997 266.539 138.997 268.592V268.61C138.997 270.348 138.56 271.859 137.685 273.142C136.822 274.414 135.568 275.4 133.923 276.1C132.278 276.788 130.294 277.132 127.973 277.132ZM147.905 277.097C146.493 277.097 145.291 276.811 144.3 276.24C143.308 275.656 142.556 274.816 142.042 273.72C141.529 272.623 141.272 271.305 141.272 269.765V257.358H148.447V268.19C148.447 269.158 148.675 269.922 149.13 270.482C149.585 271.042 150.261 271.322 151.16 271.322C151.731 271.322 152.215 271.188 152.612 270.92C153.02 270.651 153.335 270.284 153.557 269.817C153.779 269.339 153.889 268.802 153.889 268.207V257.358H161.064V276.677H153.889V273.09H153.749C153.283 274.396 152.554 275.394 151.562 276.082C150.582 276.759 149.363 277.097 147.905 277.097ZM163.759 276.677V257.358H170.934V260.945H171.074C171.552 259.638 172.281 258.647 173.261 257.97C174.241 257.282 175.46 256.938 176.919 256.938C179.042 256.938 180.675 257.579 181.819 258.863C182.973 260.146 183.551 261.948 183.551 264.27V276.677H176.376V265.845C176.376 264.877 176.149 264.112 175.694 263.552C175.239 262.992 174.562 262.712 173.664 262.712C173.104 262.712 172.62 262.847 172.211 263.115C171.803 263.383 171.488 263.751 171.266 264.217C171.045 264.684 170.934 265.221 170.934 265.827V276.677H163.759Z" fill="#F0A202"/>
<defs>
<clipPath id="clip0_56_31">
<rect width="151.809" height="154.383" fill="white" transform="translate(24.8285 73.4885)"/>
</clipPath>
</defs>
</svg>
