<svg width="201" height="301" viewBox="0 0 201 301" fill="none" xmlns="http://www.w3.org/2000/svg">
<rect x="0.373535" y="0.679871" width="200" height="300" rx="14.812" fill="white"/>
<path d="M29.2535 51.5942C27.0719 51.5942 25.1819 51.2909 23.5836 50.6842C21.997 50.0776 20.7546 49.1968 19.8563 48.0418C18.9696 46.8752 18.4796 45.4636 18.3863 43.807L18.3688 43.4745H25.1936L25.2286 43.632C25.3336 44.087 25.5786 44.4836 25.9636 44.8219C26.3485 45.1603 26.8327 45.4286 27.416 45.6269C27.9993 45.8136 28.641 45.9069 29.3409 45.9069C30.0876 45.9069 30.7234 45.8136 31.2484 45.6269C31.785 45.4402 32.1992 45.1836 32.4908 44.8569C32.7825 44.5303 32.9283 44.157 32.9283 43.737V43.7195C32.9283 43.1245 32.6425 42.6753 32.0709 42.372C31.4992 42.0687 30.5134 41.7887 29.1135 41.532L26.576 41.0771C24.0678 40.6337 22.1429 39.7879 20.8012 38.5396C19.4713 37.2913 18.8063 35.6872 18.8063 33.7273V33.7098C18.8063 32.0182 19.2496 30.5541 20.1363 29.3174C21.0346 28.0808 22.2654 27.1242 23.8286 26.4475C25.3919 25.7709 27.171 25.4326 29.166 25.4326C31.4175 25.4326 33.3133 25.7476 34.8533 26.3775C36.3932 27.0075 37.5715 27.9058 38.3881 29.0725C39.2048 30.2274 39.6481 31.5924 39.7181 33.1673L39.7356 33.5523H32.9108L32.8933 33.3773C32.8467 32.9107 32.66 32.514 32.3333 32.1874C32.0184 31.849 31.5925 31.5865 31.0559 31.3999C30.5309 31.2132 29.9301 31.1199 29.2535 31.1199C28.5768 31.1199 28.0052 31.2132 27.5385 31.3999C27.0835 31.5749 26.7394 31.8199 26.506 32.1349C26.2727 32.4382 26.1561 32.7823 26.1561 33.1673V33.1848C26.1561 33.7565 26.4419 34.1998 27.0135 34.5148C27.5852 34.8181 28.501 35.0864 29.7609 35.3197L32.2984 35.7747C35.0049 36.2647 37.0115 37.0872 38.3182 38.2421C39.6248 39.3971 40.2781 41.0012 40.2781 43.0545V43.072C40.2781 44.8103 39.8406 46.321 38.9656 47.6043C38.1023 48.876 36.8482 49.8618 35.2033 50.5617C33.5583 51.2501 31.575 51.5942 29.2535 51.5942ZM42.6405 51.1392V31.8199H49.8153V35.4072H49.9553C50.4336 34.1006 51.1627 33.109 52.1427 32.4323C53.1227 31.744 54.3418 31.3999 55.8001 31.3999C57.9233 31.3999 59.5566 32.0415 60.6999 33.3248C61.8549 34.6081 62.4323 36.4105 62.4323 38.7321V51.1392H55.2576V40.3071C55.2576 39.3388 55.0301 38.5746 54.5751 38.0147C54.1201 37.4547 53.4435 37.1747 52.5452 37.1747C51.9852 37.1747 51.501 37.3088 51.0927 37.5772C50.6844 37.8455 50.3694 38.213 50.1478 38.6796C49.9261 39.1463 49.8153 39.6829 49.8153 40.2896V51.1392H42.6405ZM74.6994 51.5592C72.5878 51.5592 70.7737 51.1684 69.2571 50.3867C67.7405 49.5934 66.5739 48.4501 65.7572 46.9569C64.9523 45.4519 64.5498 43.632 64.5498 41.497V41.462C64.5498 39.3621 64.9639 37.5597 65.7922 36.0547C66.6322 34.5498 67.8105 33.4006 69.3271 32.6073C70.8437 31.8024 72.6345 31.3999 74.6994 31.3999C76.776 31.3999 78.5726 31.7965 80.0893 32.5898C81.6059 33.3831 82.7783 34.5323 83.6066 36.0372C84.4466 37.5305 84.8666 39.3388 84.8666 41.462V41.497C84.8666 43.6436 84.4583 45.4694 83.6416 46.9744C82.825 48.4676 81.6584 49.6051 80.1418 50.3867C78.6251 51.1684 76.811 51.5592 74.6994 51.5592ZM74.7169 46.2394C75.3119 46.2394 75.8252 46.0586 76.2569 45.6969C76.6885 45.3236 77.0152 44.7869 77.2369 44.087C77.4702 43.3753 77.5868 42.512 77.5868 41.497V41.462C77.5868 40.4587 77.4643 39.6071 77.2194 38.9071C76.986 38.1955 76.6535 37.653 76.2219 37.2797C75.7902 36.9064 75.2828 36.7197 74.6994 36.7197C74.1161 36.7197 73.6086 36.9064 73.177 37.2797C72.7453 37.653 72.4129 38.1955 72.1795 38.9071C71.9462 39.6071 71.8295 40.4587 71.8295 41.462V41.497C71.8295 42.512 71.9404 43.3753 72.162 44.087C72.3954 44.7869 72.7278 45.3236 73.1595 45.6969C73.5911 46.0586 74.1103 46.2394 74.7169 46.2394ZM90.4489 51.1392L85.5491 31.8199H92.8113L94.8588 44.8569H94.9988L97.5362 31.8199H104.378L106.951 44.8569H107.091L109.138 31.8199H116.226L111.361 51.1392H103.573L100.879 38.6971H100.739L98.0962 51.1392H90.4489Z" fill="#95C1EB"/>
<path d="M96.2215 277.132C94.04 277.132 92.15 276.829 90.5517 276.222C88.9651 275.615 87.7227 274.735 86.8244 273.58C85.9377 272.413 85.4477 271.001 85.3544 269.345L85.3369 269.012H92.1617L92.1967 269.17C92.3017 269.625 92.5467 270.022 92.9317 270.36C93.3166 270.698 93.8008 270.966 94.3841 271.165C94.9674 271.351 95.6091 271.445 96.309 271.445C97.0557 271.445 97.6915 271.351 98.2165 271.165C98.7531 270.978 99.1673 270.721 99.4589 270.395C99.7506 270.068 99.8964 269.695 99.8964 269.275V269.257C99.8964 268.662 99.6106 268.213 99.039 267.91C98.4673 267.607 97.4815 267.327 96.0815 267.07L93.5441 266.615C91.0359 266.172 89.1109 265.326 87.7693 264.078C86.4394 262.829 85.7744 261.225 85.7744 259.265V259.248C85.7744 257.556 86.2177 256.092 87.1043 254.855C88.0027 253.619 89.2334 252.662 90.7967 251.985C92.36 251.309 94.1391 250.97 96.134 250.97C98.3856 250.97 100.281 251.285 101.821 251.915C103.361 252.545 104.54 253.444 105.356 254.61C106.173 255.765 106.616 257.13 106.686 258.705L106.704 259.09H99.8789L99.8614 258.915C99.8148 258.449 99.6281 258.052 99.3014 257.725C98.9865 257.387 98.5606 257.124 98.024 256.938C97.499 256.751 96.8982 256.658 96.2215 256.658C95.5449 256.658 94.9733 256.751 94.5066 256.938C94.0516 257.113 93.7075 257.358 93.4741 257.673C93.2408 257.976 93.1241 258.32 93.1241 258.705V258.723C93.1241 259.294 93.41 259.738 93.9816 260.053C94.5533 260.356 95.4691 260.624 96.729 260.858L99.2664 261.313C101.973 261.803 103.98 262.625 105.286 263.78C106.593 264.935 107.246 266.539 107.246 268.592V268.61C107.246 270.348 106.809 271.859 105.934 273.142C105.07 274.414 103.816 275.4 102.171 276.1C100.526 276.788 98.5431 277.132 96.2215 277.132ZM109.609 276.677V257.358H116.783V260.945H116.923C117.402 259.639 118.131 258.647 119.111 257.97C120.091 257.282 121.31 256.938 122.768 256.938C124.891 256.938 126.525 257.579 127.668 258.863C128.823 260.146 129.4 261.948 129.4 264.27V276.677H122.226V265.845C122.226 264.877 121.998 264.113 121.543 263.553C121.088 262.993 120.412 262.713 119.513 262.713C118.953 262.713 118.469 262.847 118.061 263.115C117.653 263.383 117.338 263.751 117.116 264.218C116.894 264.684 116.783 265.221 116.783 265.827V276.677H109.609ZM141.668 277.097C139.556 277.097 137.742 276.706 136.225 275.925C134.709 275.131 133.542 273.988 132.725 272.495C131.92 270.99 131.518 269.17 131.518 267.035V267C131.518 264.9 131.932 263.098 132.76 261.593C133.6 260.088 134.779 258.939 136.295 258.145C137.812 257.34 139.603 256.938 141.668 256.938C143.744 256.938 145.541 257.334 147.057 258.128C148.574 258.921 149.746 260.07 150.575 261.575C151.415 263.068 151.835 264.877 151.835 267V267.035C151.835 269.182 151.426 271.007 150.61 272.512C149.793 274.006 148.626 275.143 147.11 275.925C145.593 276.706 143.779 277.097 141.668 277.097ZM141.685 271.777C142.28 271.777 142.793 271.596 143.225 271.235C143.657 270.861 143.983 270.325 144.205 269.625C144.438 268.913 144.555 268.05 144.555 267.035V267C144.555 265.997 144.432 265.145 144.187 264.445C143.954 263.733 143.622 263.191 143.19 262.818C142.758 262.444 142.251 262.258 141.668 262.258C141.084 262.258 140.577 262.444 140.145 262.818C139.713 263.191 139.381 263.733 139.148 264.445C138.914 265.145 138.798 265.997 138.798 267V267.035C138.798 268.05 138.908 268.913 139.13 269.625C139.363 270.325 139.696 270.861 140.128 271.235C140.559 271.596 141.078 271.777 141.685 271.777ZM157.417 276.677L152.517 257.358H159.779L161.827 270.395H161.967L164.504 257.358H171.347L173.919 270.395H174.059L176.106 257.358H183.194L178.329 276.677H170.542L167.847 264.235H167.707L165.064 276.677H157.417Z" fill="#95C1EB"/>
<g clip-path="url(#clip0_56_54)">
<path d="M145.271 200.893C144.692 202.534 144.113 204.175 143.533 205.816C142.831 204.336 142.099 202.868 141.295 201.429C140.838 200.61 139.592 201.362 140.049 202.182C140.843 203.603 141.568 205.051 142.26 206.516C140.766 205.924 139.301 205.252 137.862 204.497C137.032 204.06 136.315 205.329 137.145 205.765C138.778 206.623 140.445 207.373 142.147 208.029C140.488 208.933 138.832 209.834 137.173 210.737C136.348 211.187 137.104 212.432 137.926 211.983C139.342 211.212 140.759 210.441 142.175 209.67C141.754 210.862 141.333 212.054 140.912 213.249C140.598 214.135 142.012 214.492 142.321 213.616C142.775 212.328 143.23 211.039 143.686 209.75C144.289 211.215 144.86 212.693 145.366 214.201C145.662 215.087 147.063 214.686 146.765 213.795C146.221 212.174 145.606 210.584 144.952 209.012C146.504 209.499 148.084 209.905 149.697 210.232C150.616 210.416 150.984 209.007 150.065 208.823C148.597 208.527 147.16 208.159 145.744 207.731C147.293 206.886 148.845 206.044 150.394 205.199C151.218 204.749 150.463 203.504 149.641 203.953C148.028 204.831 146.415 205.709 144.802 206.587C145.427 204.813 146.055 203.037 146.68 201.263C146.994 200.377 145.58 200.02 145.271 200.895V200.893Z" fill="#95C1EB"/>
<path d="M47.5124 212.039C49.1026 211.769 50.6927 211.501 52.2828 211.23C51.6422 212.33 50.999 213.428 50.3583 214.528C49.9525 215.222 51.0194 215.868 51.4227 215.176C52.0302 214.135 52.6376 213.093 53.2451 212.054C53.7556 213.428 54.266 214.803 54.7765 216.177C55.0522 216.922 56.262 216.618 55.9838 215.868C55.5627 214.732 55.139 213.594 54.7178 212.458C55.4606 212.938 56.2008 213.417 56.9435 213.895C57.6199 214.331 58.2631 213.264 57.5918 212.83C56.5708 212.169 55.5473 211.508 54.5238 210.85C55.7924 210.635 57.0584 210.421 58.3269 210.204C59.1181 210.069 58.8042 208.864 58.0181 208.997C56.9129 209.186 55.8051 209.372 54.6999 209.558C55.2513 208.611 55.8026 207.667 56.3564 206.722C56.7623 206.028 55.6954 205.382 55.2921 206.074C54.6923 207.103 54.0925 208.129 53.4927 209.157C53.0103 207.861 52.5304 206.562 52.048 205.265C51.7724 204.52 50.5625 204.824 50.8407 205.574C51.3129 206.842 51.7826 208.114 52.2548 209.382C51.2159 208.711 50.1771 208.04 49.1383 207.368C48.4619 206.932 47.8187 207.999 48.49 208.433C49.3808 209.007 50.2716 209.584 51.1623 210.161C49.8428 210.385 48.5232 210.607 47.2036 210.832C46.4124 210.967 46.7263 212.172 47.5124 212.039Z" fill="#E0ACD6"/>
<path d="M117.677 171.937C118.31 170.5 118.943 169.066 119.576 167.629C119.898 166.899 118.721 166.506 118.402 167.231C117.879 168.42 117.356 169.607 116.83 170.797C116.45 169.464 116.092 168.124 115.779 166.769C115.597 165.993 114.382 166.228 114.561 167.004C114.911 168.51 115.311 169.998 115.74 171.478C114.589 170.748 113.461 169.982 112.376 169.143C111.746 168.655 111.067 169.691 111.695 170.176C112.897 171.105 114.153 171.95 115.434 172.744C113.831 173.3 112.218 173.826 110.584 174.306C109.824 174.528 110.056 175.746 110.819 175.524C112.356 175.072 113.877 174.579 115.391 174.061C114.898 175.182 114.403 176.302 113.91 177.423C113.589 178.153 114.765 178.543 115.084 177.818C115.597 176.654 116.11 175.49 116.623 174.326C117.062 175.666 117.524 177.001 118.03 178.324C118.316 179.069 119.423 178.512 119.14 177.775C118.678 176.57 118.259 175.358 117.856 174.138C119.03 174.765 120.225 175.36 121.46 175.886C122.195 176.197 122.588 175.023 121.856 174.712C120.651 174.199 119.487 173.617 118.344 172.999C119.725 172.481 121.098 171.945 122.461 171.368C123.196 171.057 122.642 169.949 121.912 170.258C120.511 170.85 119.097 171.404 117.675 171.935L117.677 171.937Z" fill="#95C1EB"/>
<path d="M93.1385 182.767C93.09 184.403 93.0415 186.039 92.9905 187.673C92.1354 186.563 91.2804 185.455 90.4228 184.345C89.9429 183.724 88.8811 184.352 89.3661 184.983C90.1446 185.991 90.9205 186.999 91.6964 188.005C90.6219 187.979 89.5473 187.954 88.4753 187.928C87.679 187.91 87.7019 189.143 88.4932 189.161C89.7158 189.189 90.9384 189.217 92.1609 189.248C91.2395 190.315 90.3181 191.384 89.3635 192.425C88.8275 193.01 89.7107 193.87 90.2467 193.286C91.1553 192.295 92.0308 191.274 92.9114 190.258C92.8705 191.598 92.8322 192.941 92.7914 194.281C92.7684 195.077 94.0012 195.054 94.0242 194.263C94.0548 193.222 94.0854 192.18 94.1186 191.142C94.8001 192.025 95.479 192.908 96.1605 193.791C96.6404 194.414 97.7022 193.783 97.2172 193.153C96.2269 191.866 95.234 190.583 94.2437 189.296C95.7062 189.329 97.1713 189.365 98.6338 189.398C99.4301 189.416 99.4072 188.183 98.6159 188.165C97.3346 188.135 96.0508 188.104 94.7695 188.076C95.7419 186.905 96.7093 185.728 97.6435 184.521C98.1233 183.898 97.2453 183.035 96.7603 183.66C95.9461 184.712 95.0962 185.736 94.2539 186.762C94.2947 185.424 94.333 184.084 94.3739 182.747C94.3968 181.953 93.164 181.973 93.1411 182.765L93.1385 182.767Z" fill="#95C1EB"/>
<path d="M124.959 199.807C124.911 198.171 124.862 196.535 124.811 194.901C123.956 196.012 123.101 197.119 122.243 198.23C121.763 198.852 120.702 198.222 121.187 197.592C121.963 196.583 122.741 195.575 123.517 194.569C122.442 194.595 121.368 194.621 120.296 194.646C119.499 194.664 119.522 193.431 120.314 193.413C121.536 193.385 122.759 193.357 123.981 193.326C123.06 192.26 122.139 191.19 121.184 190.149C120.648 189.564 121.531 188.704 122.067 189.289C122.978 190.279 123.851 191.3 124.732 192.316C124.691 190.973 124.653 189.633 124.612 188.291C124.589 187.494 125.822 187.517 125.845 188.308C125.875 189.35 125.906 190.391 125.939 191.43C126.621 190.547 127.302 189.664 127.981 188.781C128.461 188.158 129.523 188.788 129.038 189.419C128.047 190.705 127.055 191.989 126.064 193.275C127.527 193.242 128.992 193.207 130.454 193.173C131.251 193.155 131.228 194.388 130.436 194.406C129.155 194.437 127.871 194.467 126.59 194.495C127.562 195.667 128.53 196.844 129.464 198.051C129.946 198.674 129.066 199.539 128.581 198.911C127.767 197.859 126.917 196.836 126.074 195.807C126.115 197.147 126.154 198.485 126.194 199.822C126.217 200.619 124.985 200.596 124.962 199.804L124.959 199.807Z" fill="#E0ACD6"/>
<path d="M90.9055 164.786C89.2694 164.783 87.6333 164.778 85.9973 164.775C87.0795 165.666 88.1591 166.557 89.2413 167.448C89.8463 167.945 89.1826 168.987 88.5701 168.481C87.5874 167.672 86.6073 166.863 85.6246 166.054C85.6144 167.129 85.6067 168.203 85.5965 169.278C85.5889 170.074 84.3586 170.013 84.3637 169.222C84.3739 167.999 84.3841 166.776 84.3969 165.554C83.2994 166.44 82.2019 167.325 81.1324 168.247C80.53 168.765 79.698 167.854 80.3029 167.335C81.3213 166.457 82.3703 165.615 83.4142 164.77C82.0717 164.768 80.7317 164.765 79.3891 164.76C78.5928 164.76 78.654 163.527 79.4453 163.527C80.4867 163.527 81.528 163.532 82.5694 163.535C81.7092 162.825 80.8491 162.116 79.9889 161.409C79.384 160.911 80.0476 159.87 80.6602 160.375C81.9134 161.406 83.1667 162.44 84.4199 163.471C84.4326 162.009 84.4454 160.544 84.4582 159.081C84.4658 158.285 85.6961 158.346 85.691 159.137C85.6808 160.421 85.668 161.702 85.6578 162.986C86.86 162.052 88.0672 161.123 89.3026 160.23C89.9407 159.77 90.7753 160.676 90.1321 161.141C89.055 161.922 88.0034 162.736 86.9493 163.548C88.2893 163.55 89.6267 163.553 90.9667 163.558C91.7631 163.558 91.7018 164.791 90.9106 164.791L90.9055 164.786Z" fill="#E0ACD6"/>
<path d="M83.0391 208.51C82.4725 210.358 81.9084 212.206 81.3417 214.052C80.7139 212.52 80.0834 210.991 79.4555 209.46C79.1033 208.602 77.6995 208.99 78.0543 209.856C78.626 211.244 79.1952 212.635 79.7669 214.024C78.552 213.661 77.3371 213.296 76.1221 212.934C75.2211 212.666 74.8612 214.075 75.7571 214.343C77.1405 214.756 78.5239 215.17 79.9073 215.583C78.5239 216.512 77.1431 217.444 75.7316 218.329C74.9378 218.827 75.6755 220.083 76.4692 219.585C77.8144 218.74 79.1288 217.852 80.4484 216.969C79.9839 218.485 79.5219 219.999 79.0574 221.515C78.7817 222.413 80.1932 222.773 80.4663 221.88C80.8262 220.703 81.1861 219.529 81.5459 218.352C82.0462 219.57 82.5465 220.787 83.0467 222.005C83.399 222.863 84.8028 222.475 84.448 221.609C83.7206 219.835 82.9906 218.064 82.2632 216.29C83.9197 216.785 85.5736 217.28 87.2301 217.776C88.1311 218.044 88.491 216.635 87.5951 216.367C86.1453 215.933 84.693 215.499 83.2433 215.065C84.716 214.034 86.1836 212.995 87.6232 211.913C88.3659 211.354 87.6334 210.095 86.8855 210.657C85.6298 211.601 84.3434 212.502 83.0621 213.408C83.524 211.897 83.9886 210.384 84.4506 208.873C84.7262 207.974 83.3147 207.615 83.0416 208.508L83.0391 208.51Z" fill="#B2D2F9"/>
<path d="M171.477 127.485C169.692 126.022 167.806 125.126 165.874 124.664C166.086 124.118 166.285 123.567 166.453 122.995C168.378 116.443 166.757 109.12 161.221 104.863C156.555 101.277 150.174 100.455 144.546 101.899C143.237 102.236 141.979 102.693 140.764 103.237C141.231 99.2271 141.185 95.1892 140.297 91.2305C138.186 81.8326 130.47 75.3113 121.006 74.3184C111.871 73.3587 102.463 77.6977 96.4313 84.4386C92.5287 88.7981 89.7236 93.8314 87.4316 99.125C86.9339 99.1761 86.4413 99.2858 85.9691 99.4568C83.9297 97.0653 81.6453 94.9008 78.9679 93.1473C72.786 89.1018 64.4218 87.9047 57.7193 91.3556C51.5833 94.5154 48.398 101.121 47.6833 107.727C47.4332 110.036 47.5557 112.308 47.9232 114.544C44.4596 113.574 40.7153 113.602 37.2083 114.86C27.8666 118.219 23.4867 127.51 25.2504 137.002C27.8155 150.788 40.3324 157.123 53.3139 160.38C63.748 164.359 75.4303 165.612 86.2932 166.83C101.077 168.486 116.026 168.744 130.738 166.289C137.645 165.135 144.421 163.297 150.897 160.62C157.592 157.853 164.697 154.466 169.937 149.343C175.93 143.488 178.909 133.577 171.477 127.485Z" fill="#B2D2F9"/>
<path d="M89.6061 121.622C90.4092 118.258 88.3338 114.881 84.9705 114.078C81.6072 113.274 78.2296 115.35 77.4265 118.713C76.6234 122.076 78.6988 125.454 82.0621 126.257C85.4254 127.06 88.803 124.985 89.6061 121.622Z" fill="white"/>
<path d="M79.7567 120.164C79.7567 118.089 81.4387 116.407 83.5138 116.407C85.5889 116.407 87.2709 118.089 87.2709 120.164C87.2709 122.239 85.5889 123.921 83.5138 123.921C81.4387 123.921 79.7567 122.239 79.7567 120.164Z" fill="#14242B"/>
<path d="M109.181 120.164C109.181 116.706 111.983 113.903 115.442 113.903C118.9 113.903 121.703 116.706 121.703 120.164C121.703 123.623 118.9 126.425 115.442 126.425C111.983 126.425 109.181 123.623 109.181 120.164Z" fill="white"/>
<path d="M111.685 120.164C111.685 118.089 113.367 116.407 115.442 116.407C117.517 116.407 119.199 118.089 119.199 120.164C119.199 122.239 117.517 123.921 115.442 123.921C113.367 123.921 111.685 122.239 111.685 120.164Z" fill="#14242B"/>
<path d="M157.714 138.427C155.244 137.125 152.26 138.534 151.548 141.234C150.777 144.164 148.778 147.444 144.24 150.216C137.313 154.45 130.148 150.402 125.656 146.655C123.41 144.782 120.028 145.313 118.525 147.824C116.031 151.99 111.429 157.013 103.545 157.73C95.4284 158.468 90.3542 152.899 87.5568 148.202C86.1964 145.918 82.9957 145.555 81.2473 147.562C78.2585 150.992 73.2762 154.461 65.9815 152.723C59.4831 151.176 56.3488 147.028 54.8429 143.228C53.679 140.295 50.3635 138.914 47.3976 139.996C44.5236 141.045 40.6695 141.418 35.9297 139.575C26.6314 135.958 28.4129 124.253 29.3216 120.266C25.567 124.695 24.0994 130.805 25.2505 137.002C27.8157 150.788 40.3326 157.123 53.314 160.38C63.7482 164.359 75.4304 165.612 86.2934 166.83C101.449 168.527 116.777 168.757 131.848 166.097C139.342 164.775 146.629 162.516 153.602 159.474C159.46 156.916 165.399 153.782 169.938 149.346C174.777 144.616 177.648 137.24 174.657 131.367C169.662 141.88 162.753 141.084 157.714 138.429V138.427Z" fill="#95C1EB"/>
<path d="M79.7567 117.035C79.7567 115.999 80.5964 115.156 81.6353 115.156C82.6741 115.156 83.5138 115.996 83.5138 117.035C83.5138 118.074 82.6741 118.914 81.6353 118.914C80.5964 118.914 79.7567 118.074 79.7567 117.035Z" fill="white"/>
<path d="M112.938 118.914C113.975 118.914 114.816 118.073 114.816 117.035C114.816 115.998 113.975 115.156 112.938 115.156C111.9 115.156 111.059 115.998 111.059 117.035C111.059 118.073 111.9 118.914 112.938 118.914Z" fill="white"/>
<path d="M107.172 132.666C107.356 131.671 104.469 130.689 100.691 130.693C96.9139 130.696 94.0195 131.661 94.2007 132.663C94.2594 132.994 96.1379 132.996 96.0792 132.663C95.9516 131.949 97.9093 131.209 100.694 131.21C103.474 131.211 105.429 131.952 105.296 132.666C105.235 132.998 107.113 132.998 107.174 132.666H107.172Z" fill="#14242B"/>
<path d="M61.2877 131.122C61.2877 128.355 63.5312 126.114 66.2954 126.114C69.0597 126.114 71.3032 128.357 71.3032 131.122C71.3032 133.886 69.0597 136.129 66.2954 136.129C63.5312 136.129 61.2877 133.886 61.2877 131.122Z" fill="#F4A7B7"/>
<path d="M137.918 132.24C138.361 129.51 136.507 126.938 133.777 126.495C131.047 126.052 128.475 127.906 128.032 130.636C127.589 133.366 129.443 135.938 132.173 136.381C134.903 136.824 137.475 134.97 137.918 132.24Z" fill="#F4A7B7"/>
<path opacity="0.49" d="M102.937 88.5683C101.919 88.4049 101.802 87.3482 102.228 86.409C104.798 80.7248 118.522 72.3045 126.231 78.8539C133.699 85.1991 113.599 90.2707 102.94 88.5683H102.937Z" fill="white"/>
<path opacity="0.49" d="M52.2114 108.895C49.7075 107.642 52.8367 97.6267 59.723 93.8696C66.6094 90.1125 76.6275 92.6164 76.6275 97.6267C76.6275 100.756 69.1158 94.4975 61.6016 99.5053C56.4458 102.943 54.7152 110.149 52.2114 108.895Z" fill="white"/>
<path opacity="0.49" d="M141.111 110.149C138.673 107.224 150.501 100.758 157.388 106.392C164.274 112.027 163.649 119.539 161.145 120.792C158.641 122.045 158.146 113.033 153.633 110.774C147.372 107.645 144.243 113.903 141.111 110.149Z" fill="white"/>
<path opacity="0.49" d="M49.7049 119.539C50.3302 116.41 40.94 115.157 35.9322 118.286C30.9244 121.415 28.5226 126.236 30.9244 127.676C34.0537 129.555 34.0537 122.668 40.3147 120.79C43.962 119.695 49.0438 122.844 49.7049 119.536V119.539Z" fill="white"/>
<path fill-rule="evenodd" clip-rule="evenodd" d="M111.579 217.504L112.569 218.494C111.772 219.205 110.739 219.657 109.604 219.718V218.317C110.352 218.254 111.034 217.959 111.579 217.504ZM111.902 216.836L110.163 215.098H112.608C112.544 215.751 112.29 216.349 111.902 216.836ZM112.071 217.005C112.5 216.473 112.781 215.816 112.846 215.098H114.193C114.142 216.197 113.723 217.202 113.058 217.992L112.071 217.005ZM112.836 214.348H114.171C114.055 213.267 113.584 212.291 112.876 211.54L111.983 212.434C112.442 212.959 112.749 213.62 112.836 214.348ZM112.597 214.348C112.512 213.685 112.231 213.083 111.815 212.602L110.069 214.348H112.597ZM111.507 211.981L112.394 211.093C111.623 210.468 110.658 210.074 109.604 210.018V211.228C110.319 211.288 110.974 211.56 111.507 211.981ZM109.604 211.466C110.254 211.525 110.85 211.771 111.338 212.15L109.604 213.883V211.466ZM108.948 211.233V210.027C107.913 210.11 106.969 210.52 106.218 211.152L107.072 212.006C107.596 211.582 108.242 211.304 108.948 211.233ZM107.241 212.175C107.72 211.793 108.307 211.541 108.948 211.472V213.883L107.241 212.175ZM106.573 212.498L105.715 211.64C105.059 212.377 104.623 213.314 104.512 214.348H105.775C105.858 213.649 106.145 213.012 106.573 212.498ZM106.015 214.348C106.095 213.714 106.355 213.137 106.742 212.667L108.423 214.348H106.015ZM105.765 215.098H104.49C104.54 216.164 104.935 217.142 105.567 217.921L106.514 216.973C106.099 216.447 105.829 215.802 105.765 215.098ZM106.684 216.803C106.311 216.322 106.066 215.736 106.004 215.098H108.389L106.684 216.803ZM106.967 217.449L106.014 218.403C106.794 219.138 107.817 219.618 108.948 219.71V218.311C108.194 218.236 107.508 217.923 106.967 217.449ZM108.948 218.07C108.26 217.996 107.633 217.711 107.136 217.28L108.948 215.468V218.07ZM109.604 218.076V215.529L111.41 217.335C110.909 217.747 110.286 218.015 109.604 218.076ZM109.604 220.076C110.837 220.014 111.959 219.522 112.822 218.747L114.825 220.749L114.629 220.728L114.629 220.728C113.675 220.621 112.599 220.5 111.886 220.779C111.19 221.052 110.46 221.937 109.824 222.709C109.75 222.8 109.676 222.889 109.604 222.975V220.076ZM108.948 220.068C107.718 219.976 106.606 219.455 105.761 218.656L103.636 220.781C103.746 220.771 103.86 220.76 103.976 220.749L103.976 220.749C104.974 220.653 106.122 220.542 106.807 220.843C107.508 221.152 108.183 221.998 108.781 222.748C108.838 222.819 108.893 222.888 108.948 222.957V220.068ZM105.312 218.175C104.617 217.329 104.183 216.262 104.132 215.098H101.088L101.24 215.223L101.24 215.223C102.012 215.859 102.898 216.589 103.17 217.285C103.45 217.998 103.329 219.074 103.222 220.028L103.222 220.028C103.211 220.119 103.201 220.208 103.192 220.295L105.312 218.175ZM104.153 214.348C104.265 213.216 104.741 212.19 105.462 211.387L103.204 209.129C103.214 209.24 103.225 209.354 103.236 209.47L103.236 209.47C103.332 210.468 103.443 211.615 103.142 212.3C102.833 213.002 101.987 213.677 101.237 214.275L101.146 214.348H104.153ZM105.964 210.898C106.781 210.202 107.814 209.753 108.948 209.668V206.29C108.872 206.37 108.795 206.453 108.716 206.536L108.716 206.536L108.716 206.536L108.716 206.536L108.716 206.537C108.095 207.195 107.418 207.914 106.715 208.209C105.995 208.511 104.951 208.504 104.002 208.497L104.002 208.497C103.852 208.496 103.704 208.495 103.56 208.495L105.964 210.898ZM109.604 206.264V209.66C110.757 209.718 111.811 210.151 112.648 210.839L114.97 208.517C114.86 208.52 114.748 208.524 114.635 208.527C113.729 208.555 112.739 208.585 112.034 208.293C111.313 207.994 110.582 207.253 109.916 206.579C109.811 206.472 109.706 206.366 109.604 206.264ZM114.53 214.348C114.413 213.169 113.901 212.104 113.129 211.287L115.455 208.962C115.455 209.105 115.454 209.252 115.453 209.401V209.401C115.446 210.35 115.438 211.394 115.74 212.114C116.035 212.817 116.754 213.494 117.413 214.115L117.413 214.115L117.413 214.115L117.413 214.115L117.413 214.115C117.496 214.193 117.579 214.271 117.659 214.348H114.53ZM117.723 215.098H114.551C114.499 216.295 114.04 217.389 113.311 218.245L115.469 220.403C115.466 220.313 115.463 220.221 115.461 220.129L115.46 220.128C115.433 219.222 115.403 218.233 115.694 217.528C115.993 216.806 116.734 216.075 117.409 215.41L117.409 215.409C117.516 215.304 117.622 215.2 117.723 215.098ZM102.501 208.346C102.384 208.139 102.546 207.877 102.79 207.859C103.132 207.834 103.536 207.837 103.959 207.84H103.959C104.88 207.847 105.893 207.855 106.57 207.568C106.465 207.612 107.455 206.703 107.718 206.466L109.043 205.271C109.185 205.143 109.395 205.162 109.513 205.281C109.774 205.505 110.059 205.794 110.357 206.096C111.001 206.749 111.708 207.467 112.386 207.742C112.282 207.698 113.624 207.755 113.979 207.772L115.724 207.862C115.9 207.847 116.075 207.991 116.09 208.189C116.116 208.531 116.113 208.935 116.109 209.358V209.358C116.102 210.279 116.094 211.292 116.381 211.969C116.338 211.864 117.246 212.854 117.484 213.117L118.678 214.442C118.723 214.492 118.75 214.55 118.761 214.61C118.821 214.728 118.809 214.886 118.711 215.001C118.486 215.264 118.196 215.55 117.891 215.851L117.891 215.851C117.238 216.494 116.521 217.201 116.246 217.88C116.287 217.775 116.23 219.118 116.212 219.473L116.121 221.254C116.105 221.532 115.771 221.696 115.562 221.487L115.548 221.473C115.259 221.459 114.878 221.431 114.478 221.401L114.478 221.401L114.478 221.401C113.523 221.329 112.457 221.249 112.244 221.336C111.588 221.603 110.89 222.448 110.276 223.19C110.016 223.506 109.77 223.802 109.55 224.029C109.523 224.068 109.487 224.098 109.446 224.12C109.428 224.13 109.41 224.139 109.392 224.145C109.289 224.193 109.165 224.188 109.06 224.089C109.039 224.073 109.02 224.053 109.004 224.031C108.801 223.813 108.513 223.478 108.207 223.122C107.581 222.394 106.878 221.577 106.664 221.486C106.012 221.212 104.922 221.316 103.963 221.407C103.529 221.448 103.122 221.486 102.795 221.486C102.719 221.486 102.653 221.462 102.601 221.421C102.521 221.371 102.465 221.283 102.468 221.157L102.468 221.141C102.468 221.136 102.468 221.13 102.469 221.125C102.478 220.824 102.512 220.365 102.549 219.877C102.62 218.923 102.7 217.856 102.613 217.643C102.346 216.987 101.501 216.289 100.759 215.675L100.759 215.675C100.51 215.469 100.272 215.273 100.072 215.091C99.9663 215.07 99.8948 215.003 99.8574 214.918C99.8396 214.889 99.8261 214.857 99.8182 214.824C99.7176 214.621 99.8619 214.348 100.11 214.348H100.12C100.323 214.166 100.582 213.943 100.854 213.71C101.585 213.082 102.41 212.373 102.501 212.158C102.775 211.505 102.672 210.415 102.581 209.456C102.542 209.047 102.506 208.663 102.501 208.346Z" fill="#B5D6E7"/>
<path fill-rule="evenodd" clip-rule="evenodd" d="M155.364 162.685C154.871 162.4 154.213 162.609 153.948 163.109C153.688 163.599 153.974 164.144 154.448 164.352C154.422 164.399 154.404 164.452 154.395 164.512L152.342 166.565C152.11 166.797 152.47 167.157 152.702 166.925L154.389 165.238V166.78C154.386 166.783 154.382 166.786 154.379 166.79C153.776 167.392 153.174 167.994 152.569 168.597C152.337 168.829 152.697 169.189 152.929 168.957V168.959L154.389 167.499V169.671H151.239L148.857 172.054L147.258 170.455H149.32C149.647 170.455 149.647 169.947 149.32 169.947H146.763L146.75 169.947L145.657 168.855H148.041C148.368 168.855 148.368 168.347 148.041 168.347H145.15L145.01 168.207C145.17 167.712 144.947 167.158 144.412 167.019C143.883 166.884 143.302 167.206 143.164 167.734C143.139 167.829 143.165 167.907 143.216 167.962C143.241 168.28 143.418 168.592 143.695 168.763C143.873 168.873 144.064 168.907 144.245 168.882L144.254 168.89L144.432 169.069V171.8C144.432 172.127 144.94 172.129 144.94 171.8V169.577L146.11 170.746C146.109 170.751 146.109 170.756 146.109 170.761V173.158C146.109 173.485 146.617 173.485 146.617 173.158V171.254L148.137 172.774L146.068 174.842V178.224H143.666L145.126 176.764C145.359 176.532 144.999 176.172 144.767 176.404L144.764 176.407L142.957 178.214C142.954 178.217 142.95 178.221 142.947 178.224H141.405L143.09 176.54C143.322 176.307 142.962 175.948 142.73 176.18C142.252 176.656 141.775 177.134 141.298 177.611L141.298 177.611L141.298 177.611L141.298 177.611L141.298 177.611L141.298 177.611L141.298 177.611L141.298 177.611L141.298 177.611L141.298 177.611L141.298 177.611L141.298 177.611L141.298 177.611L141.298 177.611L141.298 177.611L141.298 177.611L141.298 177.611L141.298 177.611L141.298 177.611L141.298 177.611L141.298 177.611L141.298 177.611L141.298 177.611L141.298 177.611L141.298 177.611L141.298 177.611L141.298 177.611L141.298 177.611L141.298 177.611L141.298 177.611L140.685 178.224H140.489C140.263 177.787 139.743 177.534 139.274 177.783C138.771 178.048 138.564 178.707 138.85 179.199C138.899 179.283 138.971 179.32 139.046 179.323C139.276 179.518 139.6 179.611 139.902 179.559C140.128 179.519 140.305 179.402 140.425 179.243L140.435 179.243H140.685L142.618 181.175C142.85 181.407 143.21 181.047 142.977 180.815C142.726 180.564 142.475 180.313 142.224 180.062L142.222 180.061C141.95 179.788 141.677 179.516 141.404 179.243H143.06C143.063 179.246 143.066 179.25 143.069 179.253L144.764 180.948C144.996 181.18 145.356 180.82 145.124 180.588L143.779 179.243H146.068V182.158L148.395 184.484L146.617 186.262V184.197C146.617 183.87 146.109 183.87 146.109 184.197V186.754L146.109 186.761L146.11 186.769L145.019 187.86V185.476C145.019 185.149 144.511 185.149 144.511 185.476V188.368L144.371 188.508C143.876 188.346 143.32 188.569 143.182 189.105C143.046 189.634 143.368 190.215 143.896 190.353C143.991 190.378 144.069 190.352 144.124 190.301C144.442 190.276 144.754 190.099 144.925 189.822C145.035 189.644 145.069 189.454 145.044 189.275L145.055 189.263L145.234 189.085H147.962C148.289 189.085 148.289 188.577 147.962 188.577H145.742L146.911 187.408L146.923 187.408H149.32C149.647 187.408 149.647 186.9 149.32 186.9H147.419L149.115 185.204L151.239 187.329H154.389V189.853L152.929 188.393C152.697 188.161 152.337 188.521 152.569 188.753L154.379 190.563C154.382 190.566 154.386 190.569 154.389 190.572V192.114L152.702 190.427C152.47 190.195 152.11 190.555 152.342 190.787C152.82 191.264 153.298 191.742 153.774 192.219L154.389 192.834V193.025C153.948 193.25 153.693 193.772 153.942 194.243C154.208 194.746 154.866 194.953 155.359 194.667C155.441 194.619 155.478 194.548 155.482 194.475C155.679 194.245 155.773 193.92 155.719 193.615C155.679 193.392 155.564 193.216 155.407 193.096L155.408 193.079V192.829L157.337 190.899C157.569 190.667 157.21 190.307 156.977 190.54C156.727 190.79 156.476 191.041 156.225 191.292C155.952 191.564 155.68 191.836 155.408 192.108V190.455L155.415 190.448L157.11 188.753C157.342 188.521 156.982 188.161 156.75 188.393L155.408 189.736V187.329H158.555L160.623 185.26L162.263 186.9H160.359C160.032 186.9 160.032 187.408 160.359 187.408H162.756C162.761 187.408 162.766 187.408 162.771 187.408L163.94 188.577H161.717C161.39 188.577 161.39 189.085 161.717 189.085H164.456C164.519 189.133 164.586 189.161 164.653 189.174C164.597 189.382 164.621 189.611 164.752 189.822C164.923 190.101 165.234 190.278 165.552 190.303C165.607 190.353 165.684 190.378 165.778 190.353H165.78C166.309 190.215 166.63 189.634 166.495 189.105C166.354 188.548 165.756 188.329 165.247 188.529C165.232 188.476 165.206 188.423 165.168 188.373V185.476C165.168 185.149 164.66 185.149 164.66 185.476V187.857L163.57 186.767L163.57 186.754V184.197C163.57 183.87 163.062 183.87 163.062 184.197V186.259L161.343 184.54L163.726 182.158V179.243H165.9L164.555 180.588C164.323 180.82 164.683 181.18 164.915 180.948L166.61 179.253L166.615 179.248L166.62 179.243H168.274L166.704 180.812C166.472 181.045 166.832 181.405 167.064 181.172L169 179.237C169.078 179.226 169.146 179.199 169.202 179.16C169.319 179.361 169.517 179.513 169.78 179.559C170.082 179.613 170.405 179.52 170.636 179.325C170.71 179.322 170.783 179.286 170.832 179.202V179.199C171.117 178.707 170.908 178.048 170.408 177.783C169.918 177.523 169.373 177.81 169.164 178.284C169.117 178.258 169.063 178.239 169.002 178.23C168.556 177.786 168.112 177.341 167.667 176.896C167.429 176.657 167.19 176.418 166.952 176.18C166.72 175.948 166.36 176.307 166.592 176.54L168.277 178.224H166.735C166.731 178.221 166.728 178.218 166.725 178.214C166.122 177.612 165.52 177.009 164.915 176.407C164.683 176.175 164.323 176.535 164.555 176.767V176.764L166.015 178.224H163.726V174.842L161.601 172.718L163.062 171.256V173.158C163.062 173.485 163.57 173.485 163.57 173.158V170.761L163.57 170.749L164.742 169.577V171.8C164.742 172.127 165.25 172.129 165.25 171.8V169.061C165.297 168.998 165.326 168.932 165.338 168.865C165.546 168.92 165.774 168.895 165.985 168.765C166.261 168.594 166.438 168.284 166.464 167.966C166.515 167.912 166.541 167.833 166.515 167.739V167.737C166.378 167.208 165.796 166.887 165.267 167.022C164.709 167.163 164.488 167.762 164.691 168.271C164.639 168.287 164.588 168.312 164.538 168.349H161.638C161.311 168.349 161.311 168.857 161.638 168.857H164.022L162.932 169.947C162.927 169.947 162.922 169.947 162.917 169.947H160.359C160.032 169.947 160.032 170.455 160.359 170.455H162.424L160.881 171.998L158.555 169.671H155.408V167.619L156.75 168.962C156.982 169.194 157.342 168.834 157.11 168.602L155.415 166.907L155.408 166.9V165.243L156.977 166.813C157.21 167.045 157.569 166.685 157.337 166.453L155.402 164.518C155.391 164.439 155.364 164.371 155.326 164.315C155.526 164.197 155.678 164 155.724 163.737C155.777 163.436 155.685 163.114 155.492 162.884C155.491 162.808 155.454 162.734 155.369 162.685H155.364ZM154.389 170.373H151.533L149.355 172.552L150.365 173.562C151.442 172.571 152.844 171.928 154.389 171.811V170.373ZM148.635 173.271L146.773 175.133V178.224H148.197C148.258 176.745 148.799 175.388 149.669 174.305L148.635 173.271ZM146.773 179.243V181.864L148.894 183.985L149.905 182.974C148.996 181.96 148.39 180.668 148.233 179.243H146.773ZM149.614 184.705L151.533 186.624H154.389V185.189C152.972 185.082 151.676 184.533 150.64 183.679L149.614 184.705ZM155.408 186.624H158.264L160.126 184.762L159.093 183.73C158.068 184.554 156.796 185.083 155.408 185.188V186.624ZM160.845 184.042L163.024 181.864V179.243H161.564C161.403 180.696 160.776 182.01 159.836 183.033L160.845 184.042ZM163.024 178.224V175.133L161.104 173.214L160.076 174.243C160.976 175.335 161.538 176.717 161.599 178.224H163.024ZM160.385 172.494L159.371 173.508C158.302 172.548 156.924 171.926 155.408 171.812V170.373H158.264L160.385 172.494ZM154.389 172.344C152.989 172.458 151.72 173.041 150.738 173.936L152.284 175.481C152.864 174.978 153.59 174.639 154.389 174.538V172.344ZM150.044 174.681L151.604 176.241C151.211 176.813 150.962 177.492 150.912 178.224H148.724C148.783 176.89 149.267 175.665 150.044 174.681ZM151.985 176.622C151.681 177.09 151.488 177.637 151.442 178.224H153.588L151.985 176.622ZM148.762 179.243H150.972C151.1 179.922 151.401 180.541 151.827 181.052L150.277 182.602C149.462 181.684 148.915 180.523 148.762 179.243ZM151.511 179.243C151.628 179.777 151.869 180.266 152.202 180.677L153.636 179.243H151.511ZM151.013 183.305L152.572 181.747C153.097 182.124 153.717 182.377 154.389 182.462V184.661C153.116 184.557 151.952 184.066 151.013 183.305ZM152.951 181.367C153.373 181.655 153.862 181.851 154.389 181.929V179.929L152.951 181.367ZM155.408 184.661V182.462C156.05 182.38 156.646 182.144 157.156 181.793L158.719 183.355C157.792 184.087 156.651 184.559 155.408 184.661ZM155.408 181.929C155.906 181.855 156.37 181.675 156.775 181.412L155.408 180.044V181.929ZM159.464 182.661L157.916 181.113C158.369 180.59 158.689 179.949 158.822 179.243H161.032C160.875 180.551 160.308 181.734 159.464 182.661ZM157.542 180.739C157.901 180.315 158.16 179.804 158.283 179.243H156.046L157.542 180.739ZM161.07 178.224H158.882C158.83 177.463 158.564 176.76 158.144 176.175L159.7 174.619C160.506 175.613 161.01 176.862 161.07 178.224ZM158.352 178.224C158.304 177.609 158.094 177.038 157.764 176.554L156.094 178.224H158.352ZM158.997 173.882L157.449 175.43C156.88 174.956 156.178 174.637 155.408 174.538V172.344C156.779 172.457 158.024 173.019 158.997 173.882ZM157.074 175.805C156.604 175.424 156.033 175.164 155.408 175.071V177.471L157.074 175.805ZM154.389 177.586V175.071C153.735 175.167 153.14 175.447 152.658 175.855L154.389 177.586ZM143.817 167.62C144.12 167.382 144.682 167.554 144.537 168.031C144.362 168.068 144.209 168.201 144.141 168.367C143.853 168.344 143.574 167.967 143.807 167.634C143.81 167.63 143.814 167.625 143.817 167.62ZM165.897 189.699C166.142 189.385 165.948 188.796 165.433 188.998C164.78 189.253 165.382 190.06 165.88 189.71C165.886 189.706 165.891 189.703 165.897 189.699ZM144.196 188.981C144.233 189.154 144.365 189.306 144.529 189.374C144.508 189.663 144.13 189.943 143.797 189.71C143.792 189.707 143.787 189.703 143.782 189.7C143.543 189.396 143.717 188.833 144.196 188.981ZM165.16 168.084C164.958 167.571 165.547 167.376 165.862 167.621C165.865 167.626 165.868 167.632 165.872 167.637C166.222 168.135 165.415 168.737 165.16 168.084ZM139.224 178.64C139.277 178.261 139.817 178.022 140.03 178.433C139.931 178.585 139.918 178.793 139.99 178.96C139.771 179.149 139.297 179.051 139.231 178.668C139.229 178.659 139.227 178.649 139.224 178.64ZM170.458 178.64C170.4 178.225 169.759 177.979 169.601 178.566C169.438 179.181 170.357 179.21 170.451 178.668C170.453 178.659 170.455 178.649 170.458 178.64ZM154.598 193.486C154.749 193.584 154.955 193.598 155.121 193.527C155.311 193.745 155.213 194.22 154.831 194.287C154.821 194.288 154.811 194.29 154.802 194.293C154.422 194.24 154.183 193.697 154.598 193.486ZM154.734 163.916C154.146 163.76 154.393 163.118 154.808 163.059C154.817 163.062 154.826 163.064 154.836 163.066C155.377 163.16 155.349 164.079 154.734 163.916Z" fill="#B5D6E7"/>
<path fill-rule="evenodd" clip-rule="evenodd" d="M54.1742 165.362C54.1848 165.318 54.2035 165.275 54.2303 165.234C54.5315 164.77 55.1722 164.624 55.6622 164.913C55.8027 164.995 55.9139 165.107 55.9908 165.24L56.1345 165.097C56.2212 165.012 56.331 164.972 56.4433 164.979C56.5403 164.987 56.6347 165.03 56.7062 165.102C56.7777 165.173 56.8236 165.265 56.8313 165.362C56.8389 165.474 56.8006 165.584 56.7164 165.668L55.4887 166.904V167.292L56.1421 166.631C56.2289 166.546 56.331 166.503 56.4433 166.513C56.5403 166.521 56.6347 166.564 56.7062 166.636C56.7777 166.707 56.8236 166.799 56.8313 166.896C56.8389 167.008 56.8006 167.118 56.7164 167.202L55.4887 168.438V170.811L57.2269 169.068C57.3111 168.984 57.4107 168.938 57.5281 168.951C57.6251 168.958 57.7195 169.002 57.791 169.073C57.8624 169.145 57.9084 169.237 57.916 169.334C57.9237 169.446 57.8854 169.556 57.8012 169.64L55.4913 171.957V172.157C58.0437 172.2 60.3408 173.129 62.1275 174.645V171.322C62.1275 171.095 62.2806 170.924 62.5103 170.924C62.74 170.924 62.8932 171.095 62.8932 171.322V174.045L64.4246 172.368V170.495C64.4246 170.268 64.7054 170.097 64.9351 170.097C65.1648 170.097 65.4456 170.268 65.4456 170.495V171.559L65.7008 171.284V169.41C65.7008 169.183 65.8514 169.012 66.0837 169.012C66.3159 169.012 66.4665 169.183 66.4665 169.41V169.769C66.5019 169.749 66.5412 169.734 66.5839 169.724C67.125 169.604 67.6814 169.959 67.8244 170.508C67.8657 170.667 67.8652 170.826 67.8249 170.975H68.0286C68.2557 170.975 68.4268 171.125 68.4268 171.358C68.4268 171.59 68.2557 171.741 68.0286 171.741H66.2828L66.0096 172.251H66.9464C67.1735 172.251 67.3445 172.277 67.3445 172.506C67.3445 172.736 67.1735 172.761 66.9464 172.761H65.2005L63.5236 174.548H65.9918C66.2189 174.548 66.39 174.701 66.39 174.931C66.39 175.161 66.2189 175.314 65.9918 175.314H62.8447C64.4552 177.101 65.5221 179.204 65.7544 181.636L67.8295 179.594C67.9903 179.433 68.2353 179.451 68.3987 179.615C68.562 179.778 68.5646 180.054 68.4038 180.214L66.4793 182.203H68.853L70.1777 180.83C70.3359 180.669 70.581 180.623 70.7443 180.786C70.9077 180.95 70.9102 181.225 70.7494 181.386L69.9965 182.203H70.3844L71.7091 180.814C71.8699 180.653 72.115 180.592 72.2783 180.756C72.4417 180.919 72.4442 181.164 72.2834 181.325L72.0275 181.581C72.0679 181.591 72.1077 181.609 72.1455 181.634C72.6126 181.932 72.7556 182.575 72.4671 183.065C72.3845 183.205 72.274 183.315 72.1429 183.392L72.2834 183.533C72.4442 183.693 72.4417 183.941 72.2783 184.104C72.2068 184.176 72.115 184.224 72.018 184.232C72.0151 184.233 72.0119 184.235 72.0085 184.237C72.0027 184.241 71.9963 184.245 71.9899 184.245C71.8878 184.245 71.7882 184.222 71.7117 184.145L70.4763 182.953H70.0884L70.7494 183.578C70.9102 183.737 70.9077 183.946 70.7443 184.109C70.6627 184.194 70.558 184.245 70.4559 184.245C70.3538 184.245 70.2543 184.224 70.1751 184.145L68.9398 182.953H66.5661L68.3093 184.658C68.3936 184.742 68.4344 184.811 68.4268 184.924C68.4191 185.021 68.3757 185.112 68.3042 185.186C68.2328 185.261 68.1409 185.306 68.0439 185.314L68.042 185.314L68.0386 185.315C68.0365 185.316 68.0342 185.317 68.0319 185.318L68.0318 185.318C68.0268 185.32 68.0213 185.322 68.0158 185.322C67.9137 185.322 67.8142 185.294 67.7376 185.217L65.785 183.295C65.6523 185.664 64.7309 187.8 63.2811 189.587H66.0556C66.2828 189.587 66.4538 189.612 66.4538 189.842C66.4538 190.072 66.2828 190.097 66.0556 190.097H63.3347L65.0117 191.884H66.8851C67.0051 191.884 67.1123 191.935 67.1863 192.022C67.2476 192.096 67.2833 192.198 67.2833 192.3C67.2833 192.532 67.1123 192.65 66.8851 192.65H65.8208L66.0939 193.16H67.9673C68.1945 193.16 68.3655 193.311 68.3655 193.543C68.3655 193.775 68.1945 193.926 67.9673 193.926H67.6398C67.6476 193.946 67.6539 193.967 67.6584 193.99C67.7758 194.531 67.4236 195.087 66.8748 195.23C66.7957 195.25 66.7166 195.261 66.64 195.261L66.6375 195.258C66.5803 195.258 66.5241 195.253 66.4691 195.242V195.419C66.4691 195.646 66.2853 195.817 66.0556 195.817C65.956 195.817 65.8514 195.784 65.7774 195.72C65.7006 195.655 65.7017 195.563 65.703 195.46L65.7033 195.436L65.7034 195.419V194.399C65.6978 194.361 65.6943 194.322 65.6931 194.283C65.691 194.221 65.6946 194.159 65.7034 194.098V193.673L65.1929 193.4V194.337C65.1929 194.564 65.0576 194.735 64.8279 194.735C64.7258 194.735 64.6696 194.702 64.5956 194.638C64.5088 194.564 64.4246 194.457 64.4246 194.337V192.591L62.8932 190.914V193.38C62.8932 193.607 62.7426 193.778 62.5103 193.778C62.2781 193.778 62.1275 193.607 62.1275 193.38V190.72C60.3408 192.134 58.2223 193.027 55.8741 193.145L57.7935 195.123C57.9518 195.284 57.9518 195.529 57.7884 195.692C57.7067 195.776 57.6021 195.817 57.5025 195.817C57.403 195.817 57.306 195.776 57.2269 195.697L55.4913 193.951V196.325L56.719 197.56C56.8032 197.645 56.8364 197.754 56.8287 197.867C56.8211 197.961 56.7777 198.056 56.7062 198.127C56.6245 198.211 56.5199 198.252 56.4203 198.252C56.3208 198.252 56.2238 198.211 56.1447 198.132L55.4913 197.471V197.859L56.719 199.094C56.8798 199.255 56.8696 199.5 56.7062 199.664C56.6245 199.748 56.5199 199.789 56.4178 199.789C56.3157 199.789 56.2161 199.748 56.137 199.669L55.9973 199.529C55.9201 199.668 55.8058 199.786 55.6597 199.873C55.4887 199.972 55.2998 200.021 55.1135 200.021C54.7638 200.021 54.4243 199.852 54.2303 199.551C54.2022 199.507 54.1832 199.459 54.1733 199.411L53.9164 199.669C53.8373 199.748 53.7429 199.789 53.6408 199.789C53.5387 199.789 53.4417 199.745 53.36 199.664C53.1967 199.5 53.2094 199.255 53.3702 199.094L54.7256 197.77V197.382L53.9445 198.135C53.8654 198.214 53.7403 198.255 53.6382 198.255C53.6051 198.255 53.5744 198.252 53.5412 198.242C53.3958 198.204 53.286 198.086 53.2477 197.943C53.2094 197.808 53.263 197.67 53.3677 197.566L54.723 196.241V193.87L52.7704 195.794C52.6939 195.873 52.5688 195.914 52.4667 195.914C52.4335 195.914 52.4029 195.912 52.3697 195.901C52.2268 195.863 52.117 195.746 52.0787 195.603C52.043 195.467 52.0966 195.33 52.2012 195.225L54.3401 193.119C51.8924 192.884 49.6208 191.807 48.0893 190.181V193.39C48.0893 193.617 47.8086 193.788 47.5789 193.788C47.3492 193.788 47.0684 193.617 47.0684 193.39V190.924L45.537 192.601V194.347C45.537 194.574 45.3557 194.745 45.126 194.745C45.0239 194.745 44.9218 194.712 44.8478 194.648C44.7694 194.581 44.7702 194.487 44.7711 194.381L44.7712 194.347V193.41L44.2608 193.683V194.023C44.2786 194.106 44.2865 194.192 44.2836 194.278C44.2816 194.341 44.2738 194.404 44.2608 194.465V195.429C44.2608 195.656 44.1255 195.827 43.8958 195.827C43.7937 195.827 43.7401 195.794 43.6661 195.73C43.5793 195.656 43.4951 195.549 43.4951 195.429V195.24C43.4441 195.249 43.392 195.253 43.3393 195.253V195.258C43.2601 195.258 43.181 195.248 43.1019 195.228C42.5506 195.085 42.1983 194.531 42.3183 193.987C42.3223 193.97 42.3273 193.952 42.3333 193.936H41.9968C41.7696 193.936 41.5986 193.785 41.5986 193.553C41.5986 193.321 41.7696 193.17 41.9968 193.17H43.8703L44.1434 192.66H43.079C42.8519 192.66 42.6808 192.509 42.6808 192.277C42.6808 192.045 42.8519 191.894 43.079 191.894H44.9525L46.6319 190.107H43.9085C43.6814 190.107 43.5104 190.082 43.5104 189.852C43.5104 189.623 43.6814 189.597 43.9085 189.597H47.2905C45.7667 187.81 44.83 185.258 44.7764 182.961H44.5466L42.2291 185.238C42.1525 185.317 42.053 185.317 41.9509 185.317H41.9202C41.8232 185.309 41.7314 185.271 41.6599 185.199C41.5884 185.128 41.545 185.046 41.5374 184.949C41.5272 184.837 41.5706 184.747 41.6548 184.663L43.3981 182.961H41.0243L39.789 184.16C39.7073 184.24 39.6103 184.242 39.5082 184.242C39.4061 184.242 39.3015 184.211 39.2198 184.13C39.0565 183.966 39.0539 183.742 39.2147 183.581L39.8758 182.961H39.4878L38.2525 184.155C38.1708 184.234 38.0738 184.234 37.9717 184.234C37.8696 184.234 37.7649 184.194 37.6833 184.112C37.5199 183.949 37.5174 183.706 37.6782 183.545L37.8336 183.391C37.7015 183.314 37.5902 183.203 37.5071 183.063C37.2187 182.573 37.3641 181.932 37.8287 181.631C37.8612 181.611 37.8951 181.595 37.9296 181.584L37.6782 181.335C37.5174 181.177 37.5199 180.947 37.6833 180.784C37.8466 180.62 38.0917 180.651 38.2525 180.812L39.5771 182.2H39.9651L39.2121 181.401C39.0513 181.243 39.0539 180.95 39.2173 180.786C39.3806 180.623 39.6256 180.653 39.7864 180.814L41.1111 182.203H43.4848L41.5603 180.222C41.3995 180.061 41.4021 179.763 41.5654 179.599C41.7288 179.436 41.9738 179.449 42.1346 179.61L44.5696 182.078C44.5758 182.083 44.5815 182.073 44.5869 182.064C44.5993 182.043 44.61 182.025 44.6207 182.203H44.784C44.9218 179.395 45.9224 177.376 47.4921 175.646L47.2471 175.311H43.9698C43.7426 175.311 43.5716 175.161 43.5716 174.928C43.5716 174.696 43.7426 174.546 43.9698 174.546H46.438L44.761 172.759H43.0152C42.788 172.759 42.617 172.736 42.617 172.504C42.617 172.271 42.788 172.248 43.0152 172.248H43.9519L43.6788 171.738H41.933C41.7058 171.738 41.5348 171.587 41.5348 171.355C41.5348 171.123 41.7058 170.972 41.933 170.972H42.1534C42.1141 170.824 42.114 170.666 42.155 170.508C42.2979 169.956 42.8569 169.604 43.3954 169.724C43.4311 169.732 43.4644 169.744 43.4951 169.76V169.408C43.4951 169.18 43.6482 169.009 43.8779 169.009C44.1076 169.009 44.2608 169.18 44.2608 169.408V171.281L44.7712 171.554V170.492C44.7712 170.265 44.7968 170.094 45.0265 170.094C45.2562 170.094 45.2817 170.265 45.2817 170.492V172.366L47.0684 174.043V171.319C47.0684 171.092 47.2215 170.921 47.4513 170.921C47.681 170.921 47.8341 171.092 47.8341 171.319V174.765C47.8341 174.779 47.8436 174.792 47.8528 174.804C47.8628 174.818 47.8725 174.831 47.8698 174.844L48.097 175.028C49.8403 173.377 52.1732 172.315 54.7256 172.167V172.031C54.7256 172.023 54.7061 172.015 54.6848 172.006C54.666 171.998 54.6458 171.99 54.6362 171.98L52.1732 169.545C52.0711 169.441 52.0353 169.303 52.0711 169.165C52.1094 169.022 52.2344 168.905 52.3774 168.867C52.5126 168.831 52.6658 168.869 52.7704 168.974L54.7256 170.898V168.525L53.3753 167.2C53.2707 167.098 53.2069 166.96 53.2426 166.822C53.2809 166.679 53.406 166.562 53.5489 166.523C53.6842 166.485 53.8373 166.523 53.942 166.628L54.723 167.381V166.993L53.3677 165.668C53.263 165.566 53.1967 165.428 53.2324 165.291C53.2707 165.148 53.3881 165.03 53.531 164.992C53.6663 164.954 53.8041 164.992 53.9088 165.097L54.1742 165.362ZM55.0037 165.605C55.019 165.597 55.042 165.574 55.042 165.574L55.0394 165.571H55.1032C55.19 165.579 55.2717 165.633 55.2947 165.691C55.3125 165.737 55.2921 165.793 55.236 165.857C55.1824 165.919 55.1339 165.944 55.0905 165.931C55.0292 165.913 54.968 165.837 54.9527 165.755C54.9348 165.656 54.9858 165.617 55.0037 165.605ZM58.2657 182.203H56.0067L56.5199 181.664V181.644L57.5255 180.659C57.9109 181.067 58.1534 181.437 58.2657 182.203ZM54.7332 183.407V185.633C54.2227 185.516 53.674 185.245 53.2732 184.867L54.7332 183.407ZM55.4989 183.589L57.0508 185.141C56.6067 185.454 56.0094 185.651 55.4989 185.687V183.589ZM55.9303 182.971H58.3142C58.2683 183.481 58.0207 184.204 57.6327 184.673L55.9303 182.971ZM58.6766 182.205C58.5592 181.44 58.2402 180.847 57.7808 180.365L60.1647 178.014C61.2316 179.109 61.9335 180.419 62.0739 182.205H58.6766ZM55.5015 181.45V179.643C56.012 179.673 56.4714 179.826 56.8772 180.074L55.5015 181.45ZM54.7358 181.634L54.1283 181.054H54.113L53.4085 180.327C53.7812 180.02 54.2278 179.801 54.7383 179.699V181.634H54.7358ZM53.5234 181.692L53.9751 182.208H52.3187C52.4029 181.697 52.5764 181.36 52.8164 181.018L53.5234 181.692ZM54.0492 182.974L52.7041 184.319C52.4616 183.92 52.3084 183.484 52.2727 182.974H54.0492ZM50.5932 187.54L52.9606 185.157C53.435 185.608 53.9707 185.924 54.7358 186.047V189.446C53.2043 189.301 51.6806 188.602 50.5932 187.54ZM55.5015 186.095C56.012 186.057 56.8134 185.817 57.3366 185.432L59.7359 187.828C58.5899 188.813 57.2881 189.423 55.5015 189.469V186.095ZM57.9211 184.921C58.3806 184.377 58.6715 183.484 58.72 182.974H62.0943C62.0407 184.505 61.372 186.167 60.3076 187.328L57.9211 184.921ZM62.4797 182.208C62.3393 180.421 61.5915 178.867 60.4506 177.7L62.4031 175.778C64.0443 177.448 65.1036 179.4 65.249 182.208H62.4797ZM57.1656 179.783C56.6781 179.467 56.012 179.275 55.5015 179.239V175.865C57.0329 175.909 58.4546 176.465 59.5776 177.374L57.1656 179.783ZM54.7358 179.29C53.97 179.4 53.5617 179.663 53.1124 180.041L50.7413 177.654C51.8107 176.672 53.2043 176.029 54.7358 175.891V179.29ZM52.5305 180.699C52.2217 181.118 52.0047 181.697 51.9128 182.208H48.5156C48.6407 180.676 49.2303 179.385 50.1338 178.333L52.5305 180.697V180.699ZM51.8694 182.974C51.9077 183.484 52.1017 184.094 52.4105 184.571L50.0011 187.001C49.1001 185.886 48.5437 184.505 48.4952 182.974H51.8694ZM50.2921 187.826C51.4534 188.959 52.9491 189.704 54.7358 189.852V192.622C52.1834 192.468 50.0164 191.412 48.3548 189.778L50.2921 187.826ZM55.5015 189.875C57.2881 189.829 58.7966 189.176 60.0192 188.117L61.9794 190.074C60.254 191.629 58.0539 192.591 55.5015 192.637V189.875ZM62.5359 189.495L60.5935 187.593C61.7318 186.358 62.444 184.505 62.5001 182.974H65.2644C65.2082 185.526 64.1898 187.798 62.5614 189.533C62.5577 189.533 62.5539 189.524 62.5502 189.514C62.5463 189.504 62.5423 189.494 62.5384 189.495H62.5359ZM61.8186 175.133L59.8661 177.088C58.669 176.108 57.2881 175.508 55.5015 175.464V172.703C57.7986 172.749 60.1162 173.657 61.8186 175.133ZM54.7383 172.718V175.487C53.2069 175.628 51.5861 176.317 50.4426 177.371L48.5054 175.418C50.1517 173.867 52.1859 172.866 54.7383 172.718ZM47.8928 176.062L49.8505 178.05C48.8729 179.176 48.2399 180.679 48.1123 182.21H45.343C45.4783 179.658 46.4201 177.693 47.8928 176.062ZM48.0919 182.976C48.1429 184.508 48.7428 186.082 49.7152 187.272L47.7575 189.25C46.2899 187.553 45.3838 185.273 45.3302 182.976H48.0919ZM55.1058 199.209C55.0854 199.212 55.065 199.212 55.042 199.209C55.0292 199.196 55.0165 199.186 55.0037 199.176C54.9578 199.14 54.9425 199.092 54.9552 199.025C54.9705 198.944 55.0318 198.865 55.093 198.849C55.1364 198.834 55.1849 198.862 55.2385 198.923C55.2972 198.987 55.3151 199.043 55.2972 199.089C55.2743 199.148 55.19 199.202 55.1058 199.209ZM71.6249 182.358C71.6402 182.356 71.6657 182.356 71.6657 182.356L71.6682 182.353C71.7372 182.353 71.7678 182.392 71.778 182.407C71.7856 182.422 71.7984 182.435 71.8086 182.445L71.8086 182.445V182.509C71.801 182.593 71.7474 182.678 71.6887 182.7C71.6427 182.718 71.5866 182.698 71.5228 182.642C71.4615 182.588 71.436 182.54 71.4487 182.496C71.4666 182.435 71.5432 182.374 71.6249 182.358ZM38.1707 182.509C38.1656 182.489 38.1656 182.468 38.1707 182.445C38.1835 182.432 38.1937 182.42 38.2039 182.407C38.2396 182.361 38.2907 182.346 38.3545 182.358C38.4361 182.376 38.5153 182.435 38.5306 182.496C38.5433 182.54 38.5178 182.588 38.4566 182.642C38.3928 182.7 38.3366 182.718 38.2907 182.7C38.232 182.678 38.1783 182.596 38.1707 182.509ZM66.7294 170.607C66.7702 170.546 66.8162 170.536 66.8468 170.536H66.8698C66.8851 170.541 66.903 170.541 66.9183 170.541C66.9361 170.554 66.9515 170.569 66.9642 170.584C67.0204 170.651 67.0408 170.745 67.0153 170.804C66.9974 170.85 66.9438 170.875 66.857 170.88C66.7753 170.885 66.7243 170.868 66.7013 170.829C66.6707 170.773 66.6835 170.676 66.7294 170.607ZM43.1759 194.37C43.1606 194.357 43.1453 194.342 43.1325 194.324C43.1325 194.317 43.1319 194.309 43.1313 194.302C43.1307 194.293 43.13 194.285 43.13 194.276C43.1223 194.219 43.1453 194.173 43.2014 194.135C43.2704 194.089 43.3673 194.074 43.4235 194.107C43.4618 194.128 43.4796 194.181 43.4745 194.263C43.4694 194.347 43.4439 194.401 43.398 194.421C43.3367 194.447 43.2423 194.424 43.1759 194.37ZM66.5558 194.107C66.5762 194.094 66.6043 194.089 66.6324 194.089H66.6349C66.6834 194.089 66.737 194.107 66.7804 194.135C66.8602 194.19 66.8523 194.252 66.8495 194.274L66.8493 194.275C66.8442 194.291 66.8442 194.309 66.8442 194.324V194.324C66.8314 194.342 66.8161 194.357 66.8008 194.37C66.7344 194.424 66.64 194.446 66.5813 194.421C66.5354 194.401 66.5098 194.35 66.5047 194.263C66.4996 194.181 66.5175 194.13 66.5558 194.107ZM43.0126 170.584C43.0253 170.569 43.0406 170.554 43.0585 170.541V170.543C43.0738 170.541 43.0891 170.538 43.107 170.538C43.1631 170.531 43.2091 170.556 43.2474 170.61C43.2959 170.679 43.3061 170.778 43.2755 170.832C43.2525 170.87 43.2014 170.888 43.1198 170.883C43.0355 170.878 42.9819 170.852 42.9615 170.806C42.936 170.745 42.959 170.651 43.0126 170.584Z" fill="#B5D6E7"/>
</g>
<defs>
<clipPath id="clip0_56_54">
<rect width="151.012" height="154.989" fill="white" transform="translate(24.8677 73.1856)"/>
</clipPath>
</defs>
</svg>
